<?xml version="1.0" encoding="UTF-8" standalone="no"?>
<!DOCTYPE svg PUBLIC "-//W3C//DTD SVG 1.1//EN"
 "http://www.w3.org/Graphics/SVG/1.1/DTD/svg11.dtd">
<!-- Generated by graphviz version 2.40.1 (20161225.0304)
 -->
<!-- Title: G Pages: 1 -->
<svg width="305pt" height="302pt"
 viewBox="0.00 0.00 304.63 302.00" xmlns="http://www.w3.org/2000/svg" xmlns:xlink="http://www.w3.org/1999/xlink">
<g id="graph0" class="graph" transform="scale(1 1) rotate(0) translate(4 298)">
<title>G</title>
<!-- A0 -->
<g id="node1" class="node">
<title>A0</title>
<polygon fill="none" stroke="#000000" points="108.5444,-294 .1516,-294 .1516,-258 114.5444,-258 114.5444,-288 108.5444,-294"/>
<polyline fill="none" stroke="#000000" points="108.5444,-294 108.5444,-288 "/>
<polyline fill="none" stroke="#000000" points="114.5444,-288 108.5444,-288 "/>
<text text-anchor="middle" x="57.348" y="-279" font-family="Helvetica,sans-Serif" font-size="10.00" fill="#000000">You can stick notes</text>
<text text-anchor="middle" x="57.348" y="-267" font-family="Helvetica,sans-Serif" font-size="10.00" fill="#000000">on diagrams too!</text>
</g>
<!-- A1 -->
<g id="node2" class="node">
<title>A1</title>
<polygon fill="none" stroke="#000000" points="204.1818,-294 132.5142,-294 132.5142,-258 204.1818,-258 204.1818,-294"/>
<text text-anchor="middle" x="168.348" y="-273" font-family="Helvetica,sans-Serif" font-size="10.00" fill="#000000">Customer</text>
</g>
<!-- A2 -->
<g id="node3" class="node">
<title>A2</title>
<polygon fill="none" stroke="#000000" points="195.348,-208 141.348,-208 141.348,-172 195.348,-172 195.348,-208"/>
<text text-anchor="middle" x="168.348" y="-187" font-family="Helvetica,sans-Serif" font-size="10.00" fill="#000000">Order</text>
</g>
<!-- A1&#45;&gt;A2 -->
<g id="edge1" class="edge">
<title>A1&#45;&gt;A2</title>
<path fill="none" stroke="#000000" d="M168.348,-245.5205C168.348,-236.6543 168.348,-227.01 168.348,-218.2849"/>
<polygon fill="none" stroke="#000000" points="168.3481,-245.7616 172.348,-251.7616 168.348,-257.7616 164.348,-251.7616 168.3481,-245.7616"/>
<polygon fill="#000000" stroke="#000000" points="168.348,-208.2121 172.8481,-218.2121 168.348,-213.2121 168.3481,-218.2121 168.3481,-218.2121 168.3481,-218.2121 168.348,-213.2121 163.8481,-218.2121 168.348,-208.2121 168.348,-208.2121"/>
<text text-anchor="middle" x="176.8004" y="-223.3383" font-family="Helvetica,sans-Serif" font-size="10.00" fill="#000000">orders 0..*</text>
<text text-anchor="middle" x="159.8956" y="-236.6355" font-family="Helvetica,sans-Serif" font-size="10.00" fill="#000000">1</text>
</g>
<!-- A3 -->
<g id="node4" class="node">
<title>A3</title>
<polygon fill="none" stroke="#000000" points="101.6909,-122 35.0051,-122 35.0051,-86 101.6909,-86 101.6909,-122"/>
<text text-anchor="middle" x="68.348" y="-101" font-family="Helvetica,sans-Serif" font-size="10.00" fill="#000000">LineItem</text>
</g>
<!-- A2&#45;&gt;A3 -->
<g id="edge2" class="edge">
<title>A2&#45;&gt;A3</title>
<path fill="none" stroke="#000000" d="M137.8635,-163.7834C124.9151,-152.6477 109.8955,-139.7309 97.1375,-128.759"/>
<polygon fill="#000000" stroke="#000000" points="138.0423,-163.9371 145.1996,-164.8166 147.1406,-171.7616 139.9833,-170.8821 138.0423,-163.9371"/>
<polygon fill="#000000" stroke="#000000" points="89.5249,-122.2121 100.0409,-125.3207 93.3158,-125.4723 97.1067,-128.7325 97.1067,-128.7325 97.1067,-128.7325 93.3158,-125.4723 94.1725,-132.1444 89.5249,-122.2121 89.5249,-122.2121"/>
<text text-anchor="middle" x="108.7791" y="-124.6226" font-family="Helvetica,sans-Serif" font-size="10.00" fill="#000000">*</text>
<text text-anchor="middle" x="127.8863" y="-163.3511" font-family="Helvetica,sans-Serif" font-size="10.00" fill="#000000">*</text>
</g>
<!-- A4 -->
<g id="node5" class="node">
<title>A4</title>
<polygon fill="none" stroke="#000000" points="217.297,-122 119.399,-122 119.399,-86 217.297,-86 217.297,-122"/>
<text text-anchor="middle" x="168.348" y="-101" font-family="Helvetica,sans-Serif" font-size="10.00" fill="#000000">DeliveryMethod</text>
</g>
<!-- A2&#45;&gt;A4 -->
<g id="edge3" class="edge">
<title>A2&#45;&gt;A4</title>
<path fill="none" stroke="#000000" d="M168.348,-171.7616C168.348,-160.3597 168.348,-145.4342 168.348,-132.494"/>
<polygon fill="#000000" stroke="#000000" points="168.348,-122.2121 172.8481,-132.2121 168.348,-127.2121 168.3481,-132.2121 168.3481,-132.2121 168.3481,-132.2121 168.348,-127.2121 163.8481,-132.2121 168.348,-122.2121 168.348,-122.2121"/>
<text text-anchor="middle" x="176.8004" y="-137.3383" font-family="Helvetica,sans-Serif" font-size="10.00" fill="#000000">1</text>
</g>
<!-- A5 -->
<g id="node6" class="node">
<title>A5</title>
<text text-anchor="middle" x="262.348" y="-101" font-family="Helvetica,sans-Serif" font-size="10.00" fill="#000000">A5</text>
</g>
<!-- A2&#45;&gt;A5 -->
<g id="edge4" class="edge">
<title>A2&#45;&gt;A5</title>
<path fill="none" stroke="#000000" d="M188.283,-171.7616C201.8672,-159.3335 220.0272,-142.719 234.9652,-129.0524"/>
<polygon fill="#000000" stroke="#000000" points="242.4418,-122.2121 238.1012,-132.2824 238.7527,-125.5872 235.0637,-128.9623 235.0637,-128.9623 235.0637,-128.9623 238.7527,-125.5872 232.0261,-125.6421 242.4418,-122.2121 242.4418,-122.2121"/>
<text text-anchor="middle" x="234.7736" y="-137.6837" font-family="Helvetica,sans-Serif" font-size="10.00" fill="#000000">*</text>
<text text-anchor="middle" x="195.9511" y="-150.29" font-family="Helvetica,sans-Serif" font-size="10.00" fill="#000000">*</text>
</g>
<!-- A7 -->
<g id="node8" class="node">
<title>A7</title>
<polygon fill="none" stroke="#000000" points="154.5208,-36 90.1752,-36 90.1752,0 154.5208,0 154.5208,-36"/>
<text text-anchor="middle" x="122.348" y="-15" font-family="Helvetica,sans-Serif" font-size="10.00" fill="#000000">National</text>
</g>
<!-- A4&#45;&gt;A7 -->
<g id="edge6" class="edge">
<title>A4&#45;&gt;A7</title>
<path fill="none" stroke="#000000" d="M153.7112,-76.6356C146.6486,-63.4316 138.368,-47.9505 132.0894,-36.2121"/>
<polygon fill="none" stroke="#000000" points="150.7898,-78.5946 158.5926,-85.7616 156.9623,-75.293 150.7898,-78.5946"/>
</g>
<!-- A8 -->
<g id="node9" class="node">
<title>A8</title>
<polygon fill="none" stroke="#000000" points="255.865,-36 172.831,-36 172.831,0 255.865,0 255.865,-36"/>
<text text-anchor="middle" x="214.348" y="-15" font-family="Helvetica,sans-Serif" font-size="10.00" fill="#000000">International</text>
</g>
<!-- A4&#45;&gt;A8 -->
<g id="edge7" class="edge">
<title>A4&#45;&gt;A8</title>
<path fill="none" stroke="#000000" d="M182.9848,-76.6356C190.0474,-63.4316 198.328,-47.9505 204.6066,-36.2121"/>
<polygon fill="none" stroke="#000000" points="179.7337,-75.293 178.1034,-85.7616 185.9062,-78.5946 179.7337,-75.293"/>
</g>
<!-- A6 -->
<g id="node7" class="node">
<title>A6</title>
<polygon fill="none" stroke="#000000" points="296.4124,-208 228.2836,-208 228.2836,-172 296.4124,-172 296.4124,-208"/>
<text text-anchor="middle" x="262.348" y="-187" font-family="Helvetica,sans-Serif" font-size="10.00" fill="#000000">Category</text>
</g>
<!-- A6&#45;&gt;A5 -->
<g id="edge5" class="edge">
<title>A6&#45;&gt;A5</title>
<path fill="none" stroke="#000000" d="M262.348,-161.4762C262.348,-152.0721 262.348,-141.6222 262.348,-132.2395"/>
<polygon fill="#000000" stroke="#000000" points="262.348,-171.7616 257.8481,-161.7616 262.348,-166.7616 262.3481,-161.7616 262.3481,-161.7616 262.3481,-161.7616 262.348,-166.7616 266.8481,-161.7617 262.348,-171.7616 262.348,-171.7616"/>
<polygon fill="#000000" stroke="#000000" points="262.348,-122.2121 266.8481,-132.2121 262.348,-127.2121 262.3481,-132.2121 262.3481,-132.2121 262.3481,-132.2121 262.348,-127.2121 257.8481,-132.2121 262.348,-122.2121 262.348,-122.2121"/>
</g>
</g>
</svg>
