<?xml version="1.0" encoding="UTF-8" standalone="no"?>
<!DOCTYPE svg PUBLIC "-//W3C//DTD SVG 1.1//EN"
 "http://www.w3.org/Graphics/SVG/1.1/DTD/svg11.dtd">
<!-- Generated by graphviz version 2.40.1 (20161225.0304)
 -->
<!-- Title: G Pages: 1 -->
<svg width="62pt" height="116pt"
 viewBox="0.00 0.00 62.00 116.00" xmlns="http://www.w3.org/2000/svg" xmlns:xlink="http://www.w3.org/1999/xlink">
<g id="graph0" class="graph" transform="scale(1 1) rotate(0) translate(4 112)">
<title>G</title>
<!-- A0 -->
<g id="node1" class="node">
<title>A0</title>
<polygon fill="none" stroke="#000000" points="54,-108 4,-108 0,-104 0,-72 50,-72 54,-76 54,-108"/>
<polyline fill="none" stroke="#000000" points="50,-104 0,-104 "/>
<polyline fill="none" stroke="#000000" points="50,-104 50,-72 "/>
<polyline fill="none" stroke="#000000" points="50,-104 54,-108 "/>
<text text-anchor="middle" x="27" y="-87" font-family="Helvetica,sans-Serif" font-size="10.00" fill="#000000">N2</text>
</g>
<!-- A1 -->
<g id="node2" class="node">
<title>A1</title>
<polygon fill="none" stroke="#000000" points="54,-36 4,-36 0,-32 0,0 50,0 54,-4 54,-36"/>
<polyline fill="none" stroke="#000000" points="50,-32 0,-32 "/>
<polyline fill="none" stroke="#000000" points="50,-32 50,0 "/>
<polyline fill="none" stroke="#000000" points="50,-32 54,-36 "/>
<text text-anchor="middle" x="27" y="-15" font-family="Helvetica,sans-Serif" font-size="10.00" fill="#000000">NO</text>
</g>
<!-- A0&#45;&gt;A1 -->
<g id="edge1" class="edge">
<title>A0&#45;&gt;A1</title>
<path fill="none" stroke="#000000" d="M21.0476,-71.8314C19.9921,-61 19.9842,-47.2876 21.024,-36.4133"/>
</g>
<!-- A1&#45;&gt;A0 -->
<g id="edge2" class="edge">
<title>A1&#45;&gt;A0</title>
<path fill="none" stroke="#000000" d="M32.976,-36.4133C34.0158,-47.2876 34.0079,-61 32.9524,-71.8314"/>
</g>
</g>
</svg>
