<?xml version="1.0" encoding="UTF-8" standalone="no"?>
<!DOCTYPE svg PUBLIC "-//W3C//DTD SVG 1.1//EN"
 "http://www.w3.org/Graphics/SVG/1.1/DTD/svg11.dtd">
<!-- Generated by graphviz version 2.40.1 (20161225.0304)
 -->
<!-- Title: G Pages: 1 -->
<svg width="164pt" height="174pt"
 viewBox="0.00 0.00 163.64 174.00" xmlns="http://www.w3.org/2000/svg" xmlns:xlink="http://www.w3.org/1999/xlink">
<g id="graph0" class="graph" transform="scale(1 1) rotate(0) translate(4 170)">
<title>G</title>
<!-- A0 -->
<g id="node1" class="node">
<title>A0</title>
<polygon fill="none" stroke="#000000" points="55.1665,-166 1.1665,-166 1.1665,-130 55.1665,-130 55.1665,-166"/>
<text text-anchor="middle" x="28.1665" y="-145" font-family="Helvetica,sans-Serif" font-size="10.00" fill="#000000">User</text>
</g>
<!-- A1 -->
<g id="node2" class="node">
<title>A1</title>
<polygon fill="none" stroke="#000000" points="56.5005,-58 -.1675,-58 -.1675,-22 56.5005,-22 56.5005,-58"/>
<text text-anchor="middle" x="28.1665" y="-37" font-family="Helvetica,sans-Serif" font-size="10.00" fill="#000000">Profile</text>
</g>
<!-- A0&#45;&gt;A1 -->
<g id="edge1" class="edge">
<title>A0&#45;&gt;A1</title>
<path fill="none" stroke="#000000" d="M28.1665,-129.6793C28.1665,-112.821 28.1665,-87.5651 28.1665,-68.147"/>
<polygon fill="#000000" stroke="#000000" points="28.1665,-58.0502 32.6666,-68.0501 28.1665,-63.0502 28.1666,-68.0502 28.1666,-68.0502 28.1666,-68.0502 28.1665,-63.0502 23.6666,-68.0502 28.1665,-58.0502 28.1665,-58.0502"/>
</g>
<!-- A2 -->
<g id="node3" class="node">
<title>A2</title>
<polygon fill="none" stroke="#000000" points="142.2896,-166 78.0434,-166 78.0434,-130 142.2896,-130 142.2896,-166"/>
<text text-anchor="middle" x="110.1665" y="-145" font-family="Helvetica,sans-Serif" font-size="10.00" fill="#000000">Settings</text>
</g>
<!-- A2&#45;&gt;A1 -->
<g id="edge3" class="edge">
<title>A2&#45;&gt;A1</title>
<path fill="none" stroke="#000000" d="M88.9677,-120.0796C74.1228,-100.5278 54.7203,-74.9732 41.8713,-58.0502"/>
<polygon fill="#000000" stroke="#000000" points="88.9998,-120.1219 95.8138,-122.4817 96.2563,-129.6793 89.4423,-127.3194 88.9998,-120.1219"/>
</g>
<!-- A3 -->
<g id="node4" class="node">
<title>A3</title>
<polygon fill="none" stroke="#000000" points="155.6075,-80 74.7255,-80 74.7255,0 155.6075,0 155.6075,-80"/>
<text text-anchor="middle" x="115.1665" y="-67" font-family="Helvetica,sans-Serif" font-size="10.00" fill="#000000">Home</text>
<text text-anchor="middle" x="115.1665" y="-55" font-family="Helvetica,sans-Serif" font-size="10.00" fill="#000000">method()</text>
<text text-anchor="middle" x="115.1665" y="-43" font-family="Helvetica,sans-Serif" font-size="10.00" fill="#000000">method2()</text>
<text text-anchor="middle" x="115.1665" y="-31" font-family="Helvetica,sans-Serif" font-size="10.00" fill="#000000">:name</text>
<text text-anchor="middle" x="115.1665" y="-19" font-family="Helvetica,sans-Serif" font-size="10.00" fill="#000000">_dob</text>
<text text-anchor="middle" x="115.1665" y="-7" font-family="Helvetica,sans-Serif" font-size="10.00" fill="#000000">@createdAt</text>
</g>
<!-- A2&#45;&gt;A3 -->
<g id="edge2" class="edge">
<title>A2&#45;&gt;A3</title>
<path fill="none" stroke="#000000" d="M111.4901,-119.4095C111.9005,-110.5463 112.3656,-100.5 112.8236,-90.6063"/>
<polygon fill="#000000" stroke="#000000" points="111.0147,-129.6793 106.9821,-119.4818 111.246,-124.6846 111.4772,-119.69 111.4772,-119.69 111.4772,-119.69 111.246,-124.6846 115.9724,-119.8981 111.0147,-129.6793 111.0147,-129.6793"/>
<polygon fill="#000000" stroke="#000000" points="113.2958,-80.4072 117.3284,-90.6047 113.0645,-85.4019 112.8332,-90.3965 112.8332,-90.3965 112.8332,-90.3965 113.0645,-85.4019 108.338,-90.1884 113.2958,-80.4072 113.2958,-80.4072"/>
</g>
</g>
</svg>
