<?xml version="1.0" encoding="UTF-8" standalone="no"?>
<!DOCTYPE svg PUBLIC "-//W3C//DTD SVG 1.1//EN"
 "http://www.w3.org/Graphics/SVG/1.1/DTD/svg11.dtd">
<!-- Generated by graphviz version 2.40.1 (20161225.0304)
 -->
<!-- Title: G Pages: 1 -->
<svg width="672pt" height="130pt"
 viewBox="0.00 0.00 672.23 130.00" xmlns="http://www.w3.org/2000/svg" xmlns:xlink="http://www.w3.org/1999/xlink">
<g id="graph0" class="graph" transform="scale(1 1) rotate(0) translate(4 126)">
<title>G</title>
<!-- A0 -->
<g id="node1" class="node">
<title>A0</title>
<polygon fill="none" stroke="#000000" points="58.227,-122 4.227,-122 4.227,-86 58.227,-86 58.227,-122"/>
<text text-anchor="middle" x="31.227" y="-101" font-family="Helvetica,sans-Serif" font-size="10.00" fill="#000000">Test</text>
</g>
<!-- A1 -->
<g id="node2" class="node">
<title>A1</title>
<polygon fill="none" stroke="#000000" points="62.6827,-36 -.2287,-36 -.2287,0 62.6827,0 62.6827,-36"/>
<text text-anchor="middle" x="31.227" y="-15" font-family="Helvetica,sans-Serif" font-size="10.00" fill="#000000">Product</text>
</g>
<!-- A0&#45;&gt;A1 -->
<g id="edge1" class="edge">
<title>A0&#45;&gt;A1</title>
<path fill="none" stroke="#000000" d="M31.227,-75.4762C31.227,-66.0721 31.227,-55.6222 31.227,-46.2395"/>
<polygon fill="#000000" stroke="#000000" points="31.227,-85.7616 26.7271,-75.7616 31.227,-80.7616 31.2271,-75.7616 31.2271,-75.7616 31.2271,-75.7616 31.227,-80.7616 35.7271,-75.7617 31.227,-85.7616 31.227,-85.7616"/>
<polygon fill="#000000" stroke="#000000" points="31.227,-36.2121 35.7271,-46.2121 31.227,-41.2121 31.2271,-46.2121 31.2271,-46.2121 31.2271,-46.2121 31.227,-41.2121 26.7271,-46.2121 31.227,-36.2121 31.227,-36.2121"/>
</g>
<!-- A2 -->
<g id="node3" class="node">
<title>A2</title>
<polygon fill="none" stroke="#000000" points="141.227,-122 87.227,-122 87.227,-86 141.227,-86 141.227,-122"/>
<text text-anchor="middle" x="114.227" y="-101" font-family="Helvetica,sans-Serif" font-size="10.00" fill="#000000">Test1</text>
</g>
<!-- A3 -->
<g id="node4" class="node">
<title>A3</title>
<polygon fill="none" stroke="#000000" points="148.24,-36 80.214,-36 80.214,0 148.24,0 148.24,-36"/>
<text text-anchor="middle" x="114.227" y="-15" font-family="Helvetica,sans-Serif" font-size="10.00" fill="#000000">Product1</text>
</g>
<!-- A2&#45;&gt;A3 -->
<g id="edge2" class="edge">
<title>A2&#45;&gt;A3</title>
<path fill="none" stroke="#000000" d="M114.227,-75.4762C114.227,-66.0721 114.227,-55.6222 114.227,-46.2395"/>
<polygon fill="#000000" stroke="#000000" points="114.227,-85.7616 109.7271,-75.7616 114.227,-80.7616 114.2271,-75.7616 114.2271,-75.7616 114.2271,-75.7616 114.227,-80.7616 118.7271,-75.7617 114.227,-85.7616 114.227,-85.7616"/>
<polygon fill="#000000" stroke="#000000" points="114.227,-36.2121 118.7271,-46.2121 114.227,-41.2121 114.2271,-46.2121 114.2271,-46.2121 114.2271,-46.2121 114.227,-41.2121 109.7271,-46.2121 114.227,-36.2121 114.227,-36.2121"/>
</g>
<!-- A4 -->
<g id="node5" class="node">
<title>A4</title>
<polygon fill="none" stroke="#000000" points="227.227,-122 173.227,-122 173.227,-86 227.227,-86 227.227,-122"/>
<text text-anchor="middle" x="200.227" y="-101" font-family="Helvetica,sans-Serif" font-size="10.00" fill="#000000">Test2</text>
</g>
<!-- A5 -->
<g id="node6" class="node">
<title>A5</title>
<polygon fill="none" stroke="#000000" points="234.24,-36 166.214,-36 166.214,0 234.24,0 234.24,-36"/>
<text text-anchor="middle" x="200.227" y="-15" font-family="Helvetica,sans-Serif" font-size="10.00" fill="#000000">Product2</text>
</g>
<!-- A4&#45;&gt;A5 -->
<g id="edge3" class="edge">
<title>A4&#45;&gt;A5</title>
<path fill="none" stroke="#000000" d="M200.227,-75.4762C200.227,-66.0721 200.227,-55.6222 200.227,-46.2395"/>
<polygon fill="#000000" stroke="#000000" points="200.227,-85.7616 195.7271,-75.7616 200.227,-80.7616 200.2271,-75.7616 200.2271,-75.7616 200.2271,-75.7616 200.227,-80.7616 204.7271,-75.7617 200.227,-85.7616 200.227,-85.7616"/>
<polygon fill="#000000" stroke="#000000" points="200.227,-36.2121 204.7271,-46.2121 200.227,-41.2121 200.2271,-46.2121 200.2271,-46.2121 200.2271,-46.2121 200.227,-41.2121 195.7271,-46.2121 200.227,-36.2121 200.227,-36.2121"/>
</g>
<!-- A6 -->
<g id="node7" class="node">
<title>A6</title>
<polygon fill="none" stroke="#000000" points="313.227,-122 259.227,-122 259.227,-86 313.227,-86 313.227,-122"/>
<text text-anchor="middle" x="286.227" y="-101" font-family="Helvetica,sans-Serif" font-size="10.00" fill="#000000">Test3</text>
</g>
<!-- A7 -->
<g id="node8" class="node">
<title>A7</title>
<polygon fill="none" stroke="#000000" points="320.24,-36 252.214,-36 252.214,0 320.24,0 320.24,-36"/>
<text text-anchor="middle" x="286.227" y="-15" font-family="Helvetica,sans-Serif" font-size="10.00" fill="#000000">Product3</text>
</g>
<!-- A6&#45;&gt;A7 -->
<g id="edge4" class="edge">
<title>A6&#45;&gt;A7</title>
<path fill="none" stroke="#000000" d="M286.227,-75.4762C286.227,-66.0721 286.227,-55.6222 286.227,-46.2395"/>
<polygon fill="#000000" stroke="#000000" points="286.227,-85.7616 281.7271,-75.7616 286.227,-80.7616 286.2271,-75.7616 286.2271,-75.7616 286.2271,-75.7616 286.227,-80.7616 290.7271,-75.7617 286.227,-85.7616 286.227,-85.7616"/>
<polygon fill="#000000" stroke="#000000" points="286.227,-36.2121 290.7271,-46.2121 286.227,-41.2121 286.2271,-46.2121 286.2271,-46.2121 286.2271,-46.2121 286.227,-41.2121 281.7271,-46.2121 286.227,-36.2121 286.227,-36.2121"/>
</g>
<!-- A8 -->
<g id="node9" class="node">
<title>A8</title>
<polygon fill="none" stroke="#000000" points="399.227,-122 345.227,-122 345.227,-86 399.227,-86 399.227,-122"/>
<text text-anchor="middle" x="372.227" y="-101" font-family="Helvetica,sans-Serif" font-size="10.00" fill="#000000">Test4</text>
</g>
<!-- A9 -->
<g id="node10" class="node">
<title>A9</title>
<polygon fill="none" stroke="#000000" points="406.24,-36 338.214,-36 338.214,0 406.24,0 406.24,-36"/>
<text text-anchor="middle" x="372.227" y="-15" font-family="Helvetica,sans-Serif" font-size="10.00" fill="#000000">Product4</text>
</g>
<!-- A8&#45;&gt;A9 -->
<g id="edge5" class="edge">
<title>A8&#45;&gt;A9</title>
<path fill="none" stroke="#000000" d="M372.227,-75.4762C372.227,-66.0721 372.227,-55.6222 372.227,-46.2395"/>
<polygon fill="#000000" stroke="#000000" points="372.227,-85.7616 367.7271,-75.7616 372.227,-80.7616 372.2271,-75.7616 372.2271,-75.7616 372.2271,-75.7616 372.227,-80.7616 376.7271,-75.7617 372.227,-85.7616 372.227,-85.7616"/>
<polygon fill="#000000" stroke="#000000" points="372.227,-36.2121 376.7271,-46.2121 372.227,-41.2121 372.2271,-46.2121 372.2271,-46.2121 372.2271,-46.2121 372.227,-41.2121 367.7271,-46.2121 372.227,-36.2121 372.227,-36.2121"/>
</g>
<!-- A10 -->
<g id="node11" class="node">
<title>A10</title>
<polygon fill="none" stroke="#000000" points="485.227,-122 431.227,-122 431.227,-86 485.227,-86 485.227,-122"/>
<text text-anchor="middle" x="458.227" y="-101" font-family="Helvetica,sans-Serif" font-size="10.00" fill="#000000">Test5</text>
</g>
<!-- A11 -->
<g id="node12" class="node">
<title>A11</title>
<polygon fill="none" stroke="#000000" points="492.24,-36 424.214,-36 424.214,0 492.24,0 492.24,-36"/>
<text text-anchor="middle" x="458.227" y="-15" font-family="Helvetica,sans-Serif" font-size="10.00" fill="#000000">Product5</text>
</g>
<!-- A10&#45;&gt;A11 -->
<g id="edge6" class="edge">
<title>A10&#45;&gt;A11</title>
<path fill="none" stroke="#000000" d="M458.227,-75.4762C458.227,-66.0721 458.227,-55.6222 458.227,-46.2395"/>
<polygon fill="#000000" stroke="#000000" points="458.227,-85.7616 453.7271,-75.7616 458.227,-80.7616 458.2271,-75.7616 458.2271,-75.7616 458.2271,-75.7616 458.227,-80.7616 462.7271,-75.7617 458.227,-85.7616 458.227,-85.7616"/>
<polygon fill="#000000" stroke="#000000" points="458.227,-36.2121 462.7271,-46.2121 458.227,-41.2121 458.2271,-46.2121 458.2271,-46.2121 458.2271,-46.2121 458.227,-41.2121 453.7271,-46.2121 458.227,-36.2121 458.227,-36.2121"/>
</g>
<!-- A12 -->
<g id="node13" class="node">
<title>A12</title>
<polygon fill="none" stroke="#000000" points="571.227,-122 517.227,-122 517.227,-86 571.227,-86 571.227,-122"/>
<text text-anchor="middle" x="544.227" y="-101" font-family="Helvetica,sans-Serif" font-size="10.00" fill="#000000">Test6</text>
</g>
<!-- A13 -->
<g id="node14" class="node">
<title>A13</title>
<polygon fill="none" stroke="#000000" points="578.24,-36 510.214,-36 510.214,0 578.24,0 578.24,-36"/>
<text text-anchor="middle" x="544.227" y="-15" font-family="Helvetica,sans-Serif" font-size="10.00" fill="#000000">Product6</text>
</g>
<!-- A12&#45;&gt;A13 -->
<g id="edge7" class="edge">
<title>A12&#45;&gt;A13</title>
<path fill="none" stroke="#000000" d="M544.227,-75.4762C544.227,-66.0721 544.227,-55.6222 544.227,-46.2395"/>
<polygon fill="#000000" stroke="#000000" points="544.227,-85.7616 539.7271,-75.7616 544.227,-80.7616 544.2271,-75.7616 544.2271,-75.7616 544.2271,-75.7616 544.227,-80.7616 548.7271,-75.7617 544.227,-85.7616 544.227,-85.7616"/>
<polygon fill="#000000" stroke="#000000" points="544.227,-36.2121 548.7271,-46.2121 544.227,-41.2121 544.2271,-46.2121 544.2271,-46.2121 544.2271,-46.2121 544.227,-41.2121 539.7271,-46.2121 544.227,-36.2121 544.227,-36.2121"/>
</g>
<!-- A14 -->
<g id="node15" class="node">
<title>A14</title>
<polygon fill="none" stroke="#000000" points="657.227,-122 603.227,-122 603.227,-86 657.227,-86 657.227,-122"/>
<text text-anchor="middle" x="630.227" y="-101" font-family="Helvetica,sans-Serif" font-size="10.00" fill="#000000">Test7</text>
</g>
<!-- A15 -->
<g id="node16" class="node">
<title>A15</title>
<polygon fill="none" stroke="#000000" points="664.24,-36 596.214,-36 596.214,0 664.24,0 664.24,-36"/>
<text text-anchor="middle" x="630.227" y="-15" font-family="Helvetica,sans-Serif" font-size="10.00" fill="#000000">Product7</text>
</g>
<!-- A14&#45;&gt;A15 -->
<g id="edge8" class="edge">
<title>A14&#45;&gt;A15</title>
<path fill="none" stroke="#000000" d="M630.227,-75.4762C630.227,-66.0721 630.227,-55.6222 630.227,-46.2395"/>
<polygon fill="#000000" stroke="#000000" points="630.227,-85.7616 625.7271,-75.7616 630.227,-80.7616 630.2271,-75.7616 630.2271,-75.7616 630.2271,-75.7616 630.227,-80.7616 634.7271,-75.7617 630.227,-85.7616 630.227,-85.7616"/>
<polygon fill="#000000" stroke="#000000" points="630.227,-36.2121 634.7271,-46.2121 630.227,-41.2121 630.2271,-46.2121 630.2271,-46.2121 630.2271,-46.2121 630.227,-41.2121 625.7271,-46.2121 630.227,-36.2121 630.227,-36.2121"/>
</g>
</g>
</svg>
