<?xml version="1.0" encoding="UTF-8" standalone="no"?>
<!DOCTYPE svg PUBLIC "-//W3C//DTD SVG 1.1//EN"
 "http://www.w3.org/Graphics/SVG/1.1/DTD/svg11.dtd">
<!-- Generated by graphviz version 2.40.1 (20161225.0304)
 -->
<!-- Title: G Pages: 1 -->
<svg width="134pt" height="130pt"
 viewBox="0.00 0.00 134.00 130.00" xmlns="http://www.w3.org/2000/svg" xmlns:xlink="http://www.w3.org/1999/xlink">
<g id="graph0" class="graph" transform="scale(1 1) rotate(0) translate(4 126)">
<title>G</title>
<!-- A0 -->
<g id="node1" class="node">
<title>A0</title>
<polygon fill="none" stroke="#000000" points="93.2844,-122 32.7156,-122 32.7156,-86 93.2844,-86 93.2844,-122"/>
<text text-anchor="middle" x="63" y="-101" font-family="Helvetica,sans-Serif" font-size="10.00" fill="#000000">module</text>
</g>
<!-- A1 -->
<g id="node2" class="node">
<title>A1</title>
<polygon fill="none" stroke="#000000" points="54,-36 0,-36 0,0 54,0 54,-36"/>
<text text-anchor="middle" x="27" y="-15" font-family="Helvetica,sans-Serif" font-size="10.00" fill="#000000">lock</text>
</g>
<!-- A0&#45;&gt;A1 -->
<g id="edge1" class="edge">
<title>A0&#45;&gt;A1</title>
<path fill="none" stroke="#000000" d="M55.3653,-85.7616C50.497,-74.1316 44.094,-58.8357 38.6037,-45.72"/>
<polygon fill="#000000" stroke="#000000" points="34.6237,-36.2121 42.6361,-43.6989 36.5544,-40.8243 38.4851,-45.4365 38.4851,-45.4365 38.4851,-45.4365 36.5544,-40.8243 34.3341,-47.1742 34.6237,-36.2121 34.6237,-36.2121"/>
</g>
<!-- A2 -->
<g id="node3" class="node">
<title>A2</title>
<polygon fill="none" stroke="#000000" points="126,-36 72,-36 72,0 126,0 126,-36"/>
<text text-anchor="middle" x="99" y="-15" font-family="Helvetica,sans-Serif" font-size="10.00" fill="#000000">event</text>
</g>
<!-- A0&#45;&gt;A2 -->
<g id="edge2" class="edge">
<title>A0&#45;&gt;A2</title>
<path fill="none" stroke="#000000" d="M70.6347,-85.7616C75.503,-74.1316 81.906,-58.8357 87.3963,-45.72"/>
<polygon fill="#000000" stroke="#000000" points="91.3763,-36.2121 91.6659,-47.1742 89.4456,-40.8243 87.5149,-45.4365 87.5149,-45.4365 87.5149,-45.4365 89.4456,-40.8243 83.3639,-43.6989 91.3763,-36.2121 91.3763,-36.2121"/>
</g>
</g>
</svg>
