<?xml version="1.0" encoding="UTF-8" standalone="no"?>
<!DOCTYPE svg PUBLIC "-//W3C//DTD SVG 1.1//EN"
 "http://www.w3.org/Graphics/SVG/1.1/DTD/svg11.dtd">
<!-- Generated by graphviz version 2.40.1 (20161225.0304)
 -->
<!-- Title: G Pages: 1 -->
<svg width="206pt" height="44pt"
 viewBox="0.00 0.00 206.00 44.00" xmlns="http://www.w3.org/2000/svg" xmlns:xlink="http://www.w3.org/1999/xlink">
<g id="graph0" class="graph" transform="scale(1 1) rotate(0) translate(4 40)">
<title>G</title>
<!-- A0 -->
<g id="node1" class="node">
<title>A0</title>
<polygon fill="none" stroke="#000000" points="54,-36 4,-36 0,-32 0,0 50,0 54,-4 54,-36"/>
<polyline fill="none" stroke="#000000" points="50,-32 0,-32 "/>
<polyline fill="none" stroke="#000000" points="50,-32 50,0 "/>
<polyline fill="none" stroke="#000000" points="50,-32 54,-36 "/>
<text text-anchor="middle" x="27" y="-15" font-family="Helvetica,sans-Serif" font-size="10.00" fill="#000000">A</text>
</g>
<!-- A1 -->
<g id="node2" class="node">
<title>A1</title>
<polygon fill="none" stroke="#000000" points="126,-36 76,-36 72,-32 72,0 122,0 126,-4 126,-36"/>
<polyline fill="none" stroke="#000000" points="122,-32 72,-32 "/>
<polyline fill="none" stroke="#000000" points="122,-32 122,0 "/>
<polyline fill="none" stroke="#000000" points="122,-32 126,-36 "/>
<text text-anchor="middle" x="99" y="-15" font-family="Helvetica,sans-Serif" font-size="10.00" fill="#000000">B</text>
</g>
<!-- A2 -->
<g id="node3" class="node">
<title>A2</title>
<polygon fill="none" stroke="#000000" points="198,-36 148,-36 144,-32 144,0 194,0 198,-4 198,-36"/>
<polyline fill="none" stroke="#000000" points="194,-32 144,-32 "/>
<polyline fill="none" stroke="#000000" points="194,-32 194,0 "/>
<polyline fill="none" stroke="#000000" points="194,-32 198,-36 "/>
<text text-anchor="middle" x="171" y="-15" font-family="Helvetica,sans-Serif" font-size="10.00" fill="#000000">C</text>
</g>
</g>
</svg>
