<?xml version="1.0" encoding="UTF-8" standalone="no"?>
<!DOCTYPE svg PUBLIC "-//W3C//DTD SVG 1.1//EN"
 "http://www.w3.org/Graphics/SVG/1.1/DTD/svg11.dtd">
<!-- Generated by graphviz version 2.40.1 (20161225.0304)
 -->
<!-- Title: G Pages: 1 -->
<svg width="721pt" height="448pt"
 viewBox="0.00 0.00 721.13 448.00" xmlns="http://www.w3.org/2000/svg" xmlns:xlink="http://www.w3.org/1999/xlink">
<g id="graph0" class="graph" transform="scale(1 1) rotate(0) translate(4 444)">
<title>G</title>
<!-- A0 -->
<g id="node1" class="node">
<title>A0</title>
<polygon fill="none" stroke="#000000" points="241.1167,-434 116.5503,-434 116.5503,-366 247.1167,-366 247.1167,-428 241.1167,-434"/>
<polyline fill="none" stroke="#000000" points="241.1167,-434 241.1167,-428 "/>
<polyline fill="none" stroke="#000000" points="247.1167,-428 241.1167,-428 "/>
<text text-anchor="middle" x="181.8335" y="-421" font-family="Helvetica,sans-Serif" font-size="10.00" fill="#000000">Client sends</text>
<text text-anchor="middle" x="181.8335" y="-409" font-family="Helvetica,sans-Serif" font-size="10.00" fill="#000000">HTTP/HTTPS requests</text>
<text text-anchor="middle" x="181.8335" y="-397" font-family="Helvetica,sans-Serif" font-size="10.00" fill="#000000">and receives</text>
<text text-anchor="middle" x="181.8335" y="-385" font-family="Helvetica,sans-Serif" font-size="10.00" fill="#000000">HTTP/HTTPS</text>
<text text-anchor="middle" x="181.8335" y="-373" font-family="Helvetica,sans-Serif" font-size="10.00" fill="#000000">responses</text>
</g>
<!-- A1 -->
<g id="node2" class="node">
<title>A1</title>
<polygon fill="none" stroke="#000000" points="318.8335,-418 268.8335,-418 264.8335,-414 264.8335,-382 314.8335,-382 318.8335,-386 318.8335,-418"/>
<polyline fill="none" stroke="#000000" points="314.8335,-414 264.8335,-414 "/>
<polyline fill="none" stroke="#000000" points="314.8335,-414 314.8335,-382 "/>
<polyline fill="none" stroke="#000000" points="314.8335,-414 318.8335,-418 "/>
<text text-anchor="middle" x="291.8335" y="-397" font-family="Helvetica,sans-Serif" font-size="10.00" fill="#000000">Client</text>
</g>
<!-- A2 -->
<g id="node3" class="node">
<title>A2</title>
<polygon fill="none" stroke="#000000" points="338.3027,-324 249.3643,-324 245.3643,-320 245.3643,-288 334.3027,-288 338.3027,-292 338.3027,-324"/>
<polyline fill="none" stroke="#000000" points="334.3027,-320 245.3643,-320 "/>
<polyline fill="none" stroke="#000000" points="334.3027,-320 334.3027,-288 "/>
<polyline fill="none" stroke="#000000" points="334.3027,-320 338.3027,-324 "/>
<text text-anchor="middle" x="291.8335" y="-309" font-family="Helvetica,sans-Serif" font-size="10.00" fill="#000000">Load Balancer</text>
<text text-anchor="middle" x="291.8335" y="-297" font-family="Helvetica,sans-Serif" font-size="10.00" fill="#000000">(Haproxy)</text>
</g>
<!-- A1&#45;&gt;A2 -->
<g id="edge1" class="edge">
<title>A1&#45;&gt;A2</title>
<path fill="none" stroke="#000000" d="M286.3755,-381.8759C284.6509,-365.2306 284.6528,-340.6962 286.3813,-324.0685"/>
</g>
<!-- A2&#45;&gt;A1 -->
<g id="edge2" class="edge">
<title>A2&#45;&gt;A1</title>
<path fill="none" stroke="#000000" d="M297.2857,-324.0685C299.0142,-340.6962 299.0161,-365.2306 297.2915,-381.8759"/>
</g>
<!-- A3 -->
<g id="node4" class="node">
<title>A3</title>
<polygon fill="none" stroke="#000000" points="335.1842,-252 252.4828,-252 248.4828,-248 248.4828,-216 331.1842,-216 335.1842,-220 335.1842,-252"/>
<polyline fill="none" stroke="#000000" points="331.1842,-248 248.4828,-248 "/>
<polyline fill="none" stroke="#000000" points="331.1842,-248 331.1842,-216 "/>
<polyline fill="none" stroke="#000000" points="331.1842,-248 335.1842,-252 "/>
<text text-anchor="middle" x="291.8335" y="-237" font-family="Helvetica,sans-Serif" font-size="10.00" fill="#000000">API Gateway</text>
<text text-anchor="middle" x="291.8335" y="-225" font-family="Helvetica,sans-Serif" font-size="10.00" fill="#000000">(Node.js)</text>
</g>
<!-- A2&#45;&gt;A3 -->
<g id="edge3" class="edge">
<title>A2&#45;&gt;A3</title>
<path fill="none" stroke="#000000" d="M285.8811,-287.8314C284.8256,-277 284.8177,-263.2876 285.8575,-252.4133"/>
</g>
<!-- A3&#45;&gt;A2 -->
<g id="edge4" class="edge">
<title>A3&#45;&gt;A2</title>
<path fill="none" stroke="#000000" d="M297.8095,-252.4133C298.8493,-263.2876 298.8414,-277 297.7859,-287.8314"/>
</g>
<!-- A5 -->
<g id="node6" class="node">
<title>A5</title>
<polygon fill="none" stroke="#000000" points="348.2714,-108 239.3956,-108 235.3956,-104 235.3956,-72 344.2714,-72 348.2714,-76 348.2714,-108"/>
<polyline fill="none" stroke="#000000" points="344.2714,-104 235.3956,-104 "/>
<polyline fill="none" stroke="#000000" points="344.2714,-104 344.2714,-72 "/>
<polyline fill="none" stroke="#000000" points="344.2714,-104 348.2714,-108 "/>
<text text-anchor="middle" x="291.8335" y="-87" font-family="Helvetica,sans-Serif" font-size="10.00" fill="#000000">Discovery (Consul)</text>
</g>
<!-- A3&#45;&gt;A5 -->
<g id="edge5" class="edge">
<title>A3&#45;&gt;A5</title>
<path fill="none" stroke="#000000" d="M287.1603,-215.7623C284.3863,-188.0633 284.3912,-135.7005 287.1752,-108.0896"/>
</g>
<!-- A8 -->
<g id="node9" class="node">
<title>A8</title>
<polygon fill="none" stroke="#000000" points="255.2746,-180 166.3924,-180 162.3924,-176 162.3924,-144 251.2746,-144 255.2746,-148 255.2746,-180"/>
<polyline fill="none" stroke="#000000" points="251.2746,-176 162.3924,-176 "/>
<polyline fill="none" stroke="#000000" points="251.2746,-176 251.2746,-144 "/>
<polyline fill="none" stroke="#000000" points="251.2746,-176 255.2746,-180 "/>
<text text-anchor="middle" x="208.8335" y="-165" font-family="Helvetica,sans-Serif" font-size="10.00" fill="#000000">Microservice 1</text>
<text text-anchor="middle" x="208.8335" y="-153" font-family="Helvetica,sans-Serif" font-size="10.00" fill="#000000">(Docker 1)</text>
</g>
<!-- A3&#45;&gt;A8 -->
<g id="edge7" class="edge">
<title>A3&#45;&gt;A8</title>
<path fill="none" stroke="#000000" d="M264.9367,-215.8314C251.2909,-204.9167 235.3363,-191.0764 223.8194,-180.1628"/>
</g>
<!-- A9 -->
<g id="node10" class="node">
<title>A9</title>
<polygon fill="none" stroke="#000000" points="421.2746,-180 332.3924,-180 328.3924,-176 328.3924,-144 417.2746,-144 421.2746,-148 421.2746,-180"/>
<polyline fill="none" stroke="#000000" points="417.2746,-176 328.3924,-176 "/>
<polyline fill="none" stroke="#000000" points="417.2746,-176 417.2746,-144 "/>
<polyline fill="none" stroke="#000000" points="417.2746,-176 421.2746,-180 "/>
<text text-anchor="middle" x="374.8335" y="-165" font-family="Helvetica,sans-Serif" font-size="10.00" fill="#000000">Microservice 2</text>
<text text-anchor="middle" x="374.8335" y="-153" font-family="Helvetica,sans-Serif" font-size="10.00" fill="#000000">(Docker 2)</text>
</g>
<!-- A3&#45;&gt;A9 -->
<g id="edge8" class="edge">
<title>A3&#45;&gt;A9</title>
<path fill="none" stroke="#000000" d="M312.7779,-215.8314C325.3601,-204.9167 341.3148,-191.0764 353.8958,-180.1628"/>
</g>
<!-- A10 -->
<g id="node11" class="node">
<title>A10</title>
<polygon fill="none" stroke="#000000" points="531.2746,-180 442.3924,-180 438.3924,-176 438.3924,-144 527.2746,-144 531.2746,-148 531.2746,-180"/>
<polyline fill="none" stroke="#000000" points="527.2746,-176 438.3924,-176 "/>
<polyline fill="none" stroke="#000000" points="527.2746,-176 527.2746,-144 "/>
<polyline fill="none" stroke="#000000" points="527.2746,-176 531.2746,-180 "/>
<text text-anchor="middle" x="484.8335" y="-165" font-family="Helvetica,sans-Serif" font-size="10.00" fill="#000000">Microservice 3</text>
<text text-anchor="middle" x="484.8335" y="-153" font-family="Helvetica,sans-Serif" font-size="10.00" fill="#000000">(Docker 3)</text>
</g>
<!-- A3&#45;&gt;A10 -->
<g id="edge9" class="edge">
<title>A3&#45;&gt;A10</title>
<path fill="none" stroke="#000000" d="M335.1465,-217.8418C365.8206,-206.3986 406.9215,-191.0656 438.2943,-179.3618"/>
</g>
<!-- A11 -->
<g id="node12" class="node">
<title>A11</title>
<polygon fill="none" stroke="#000000" points="145.2746,-180 56.3924,-180 52.3924,-176 52.3924,-144 141.2746,-144 145.2746,-148 145.2746,-180"/>
<polyline fill="none" stroke="#000000" points="141.2746,-176 52.3924,-176 "/>
<polyline fill="none" stroke="#000000" points="141.2746,-176 141.2746,-144 "/>
<polyline fill="none" stroke="#000000" points="141.2746,-176 145.2746,-180 "/>
<text text-anchor="middle" x="98.8335" y="-165" font-family="Helvetica,sans-Serif" font-size="10.00" fill="#000000">Microservice 4</text>
<text text-anchor="middle" x="98.8335" y="-153" font-family="Helvetica,sans-Serif" font-size="10.00" fill="#000000">(Docker 4)</text>
</g>
<!-- A3&#45;&gt;A11 -->
<g id="edge10" class="edge">
<title>A3&#45;&gt;A11</title>
<path fill="none" stroke="#000000" d="M248.5205,-217.8418C217.8464,-206.3986 176.7455,-191.0656 145.3727,-179.3618"/>
</g>
<!-- A4 -->
<g id="node5" class="node">
<title>A4</title>
<polygon fill="none" stroke="#000000" points="448.9182,-434 336.7488,-434 336.7488,-366 454.9182,-366 454.9182,-428 448.9182,-434"/>
<polyline fill="none" stroke="#000000" points="448.9182,-434 448.9182,-428 "/>
<polyline fill="none" stroke="#000000" points="454.9182,-428 448.9182,-428 "/>
<text text-anchor="middle" x="395.8335" y="-421" font-family="Helvetica,sans-Serif" font-size="10.00" fill="#000000">API Gateway should</text>
<text text-anchor="middle" x="395.8335" y="-409" font-family="Helvetica,sans-Serif" font-size="10.00" fill="#000000">check Microservice</text>
<text text-anchor="middle" x="395.8335" y="-397" font-family="Helvetica,sans-Serif" font-size="10.00" fill="#000000">𝞪 status from</text>
<text text-anchor="middle" x="395.8335" y="-385" font-family="Helvetica,sans-Serif" font-size="10.00" fill="#000000">Discovery and the</text>
<text text-anchor="middle" x="395.8335" y="-373" font-family="Helvetica,sans-Serif" font-size="10.00" fill="#000000">location</text>
</g>
<!-- A5&#45;&gt;A3 -->
<g id="edge6" class="edge">
<title>A5&#45;&gt;A3</title>
<path fill="none" stroke="#000000" d="M296.4918,-108.0896C299.2758,-135.7005 299.2807,-188.0633 296.5067,-215.7623"/>
</g>
<!-- A6 -->
<g id="node7" class="node">
<title>A6</title>
<polygon fill="none" stroke="#000000" points="570.9285,-440 472.7385,-440 472.7385,-360 576.9285,-360 576.9285,-434 570.9285,-440"/>
<polyline fill="none" stroke="#000000" points="570.9285,-440 570.9285,-434 "/>
<polyline fill="none" stroke="#000000" points="576.9285,-434 570.9285,-434 "/>
<text text-anchor="middle" x="524.8335" y="-427" font-family="Helvetica,sans-Serif" font-size="10.00" fill="#000000">Discovery will tell</text>
<text text-anchor="middle" x="524.8335" y="-415" font-family="Helvetica,sans-Serif" font-size="10.00" fill="#000000">API Gateway the</text>
<text text-anchor="middle" x="524.8335" y="-403" font-family="Helvetica,sans-Serif" font-size="10.00" fill="#000000">location and port</text>
<text text-anchor="middle" x="524.8335" y="-391" font-family="Helvetica,sans-Serif" font-size="10.00" fill="#000000">number for the</text>
<text text-anchor="middle" x="524.8335" y="-379" font-family="Helvetica,sans-Serif" font-size="10.00" fill="#000000">request</text>
<text text-anchor="middle" x="524.8335" y="-367" font-family="Helvetica,sans-Serif" font-size="10.00" fill="#000000">microservice</text>
</g>
<!-- A7 -->
<g id="node8" class="node">
<title>A7</title>
<polygon fill="none" stroke="#000000" points="706.9182,-422 594.7488,-422 594.7488,-378 712.9182,-378 712.9182,-416 706.9182,-422"/>
<polyline fill="none" stroke="#000000" points="706.9182,-422 706.9182,-416 "/>
<polyline fill="none" stroke="#000000" points="712.9182,-416 706.9182,-416 "/>
<text text-anchor="middle" x="653.8335" y="-409" font-family="Helvetica,sans-Serif" font-size="10.00" fill="#000000">API Gateway should</text>
<text text-anchor="middle" x="653.8335" y="-397" font-family="Helvetica,sans-Serif" font-size="10.00" fill="#000000">send request to</text>
<text text-anchor="middle" x="653.8335" y="-385" font-family="Helvetica,sans-Serif" font-size="10.00" fill="#000000">Microservice 𝞪</text>
</g>
<!-- A8&#45;&gt;A3 -->
<g id="edge11" class="edge">
<title>A8&#45;&gt;A3</title>
<path fill="none" stroke="#000000" d="M235.723,-180.1628C249.368,-191.0764 265.323,-204.9167 276.8415,-215.8314"/>
</g>
<!-- A8&#45;&gt;A5 -->
<g id="edge12" class="edge">
<title>A8&#45;&gt;A5</title>
<path fill="none" stroke="#000000" d="M229.7779,-143.8314C242.3601,-132.9167 258.3148,-119.0764 270.8958,-108.1628"/>
</g>
<!-- A12 -->
<g id="node13" class="node">
<title>A12</title>
<polygon fill="none" stroke="#000000" points="217.5011,-108 122.1659,-108 118.1659,-104 118.1659,-72 213.5011,-72 217.5011,-76 217.5011,-108"/>
<polyline fill="none" stroke="#000000" points="213.5011,-104 118.1659,-104 "/>
<polyline fill="none" stroke="#000000" points="213.5011,-104 213.5011,-72 "/>
<polyline fill="none" stroke="#000000" points="213.5011,-104 217.5011,-108 "/>
<text text-anchor="middle" x="167.8335" y="-87" font-family="Helvetica,sans-Serif" font-size="10.00" fill="#000000">DB 1 (Docker 1)</text>
</g>
<!-- A8&#45;&gt;A12 -->
<g id="edge16" class="edge">
<title>A8&#45;&gt;A12</title>
<path fill="none" stroke="#000000" d="M198.4875,-143.8314C192.3196,-133 184.5111,-119.2876 178.3188,-108.4133"/>
</g>
<!-- A9&#45;&gt;A5 -->
<g id="edge13" class="edge">
<title>A9&#45;&gt;A5</title>
<path fill="none" stroke="#000000" d="M353.8891,-143.8314C341.3069,-132.9167 325.3522,-119.0764 312.7712,-108.1628"/>
</g>
<!-- A13 -->
<g id="node14" class="node">
<title>A13</title>
<polygon fill="none" stroke="#000000" points="465.5011,-108 370.1659,-108 366.1659,-104 366.1659,-72 461.5011,-72 465.5011,-76 465.5011,-108"/>
<polyline fill="none" stroke="#000000" points="461.5011,-104 366.1659,-104 "/>
<polyline fill="none" stroke="#000000" points="461.5011,-104 461.5011,-72 "/>
<polyline fill="none" stroke="#000000" points="461.5011,-104 465.5011,-108 "/>
<text text-anchor="middle" x="415.8335" y="-87" font-family="Helvetica,sans-Serif" font-size="10.00" fill="#000000">DB 2 (Docker 2)</text>
</g>
<!-- A9&#45;&gt;A13 -->
<g id="edge17" class="edge">
<title>A9&#45;&gt;A13</title>
<path fill="none" stroke="#000000" d="M385.1795,-143.8314C391.3474,-133 399.1559,-119.2876 405.3482,-108.4133"/>
</g>
<!-- A10&#45;&gt;A5 -->
<g id="edge14" class="edge">
<title>A10&#45;&gt;A5</title>
<path fill="none" stroke="#000000" d="M438.6052,-144.7542C408.9413,-133.6879 370.4845,-119.3413 340.3779,-108.1098"/>
</g>
<!-- A14 -->
<g id="node15" class="node">
<title>A14</title>
<polygon fill="none" stroke="#000000" points="583.5011,-108 488.1659,-108 484.1659,-104 484.1659,-72 579.5011,-72 583.5011,-76 583.5011,-108"/>
<polyline fill="none" stroke="#000000" points="579.5011,-104 484.1659,-104 "/>
<polyline fill="none" stroke="#000000" points="579.5011,-104 579.5011,-72 "/>
<polyline fill="none" stroke="#000000" points="579.5011,-104 583.5011,-108 "/>
<text text-anchor="middle" x="533.8335" y="-87" font-family="Helvetica,sans-Serif" font-size="10.00" fill="#000000">DB 3 (Docker 3)</text>
</g>
<!-- A10&#45;&gt;A14 -->
<g id="edge18" class="edge">
<title>A10&#45;&gt;A14</title>
<path fill="none" stroke="#000000" d="M497.1983,-143.8314C504.5696,-133 513.9017,-119.2876 521.3022,-108.4133"/>
</g>
<!-- A11&#45;&gt;A5 -->
<g id="edge15" class="edge">
<title>A11&#45;&gt;A5</title>
<path fill="none" stroke="#000000" d="M145.0618,-144.7542C174.7257,-133.6879 213.1825,-119.3413 243.2891,-108.1098"/>
</g>
<!-- A15 -->
<g id="node16" class="node">
<title>A15</title>
<polygon fill="none" stroke="#000000" points="99.5011,-108 4.1659,-108 .1659,-104 .1659,-72 95.5011,-72 99.5011,-76 99.5011,-108"/>
<polyline fill="none" stroke="#000000" points="95.5011,-104 .1659,-104 "/>
<polyline fill="none" stroke="#000000" points="95.5011,-104 95.5011,-72 "/>
<polyline fill="none" stroke="#000000" points="95.5011,-104 99.5011,-108 "/>
<text text-anchor="middle" x="49.8335" y="-87" font-family="Helvetica,sans-Serif" font-size="10.00" fill="#000000">DB 4 (Docker 4)</text>
</g>
<!-- A11&#45;&gt;A15 -->
<g id="edge19" class="edge">
<title>A11&#45;&gt;A15</title>
<path fill="none" stroke="#000000" d="M86.4687,-143.8314C79.0974,-133 69.7653,-119.2876 62.3648,-108.4133"/>
</g>
<!-- A16 -->
<g id="node17" class="node">
<title>A16</title>
<polygon fill="none" stroke="#000000" points="347.1097,-36 240.5573,-36 236.5573,-32 236.5573,0 343.1097,0 347.1097,-4 347.1097,-36"/>
<polyline fill="none" stroke="#000000" points="343.1097,-32 236.5573,-32 "/>
<polyline fill="none" stroke="#000000" points="343.1097,-32 343.1097,0 "/>
<polyline fill="none" stroke="#000000" points="343.1097,-32 347.1097,-36 "/>
<text text-anchor="middle" x="291.8335" y="-15" font-family="Helvetica,sans-Serif" font-size="10.00" fill="#000000">Archive (Docker 5)</text>
</g>
<!-- A12&#45;&gt;A16 -->
<g id="edge20" class="edge">
<title>A12&#45;&gt;A16</title>
<path fill="none" stroke="#000000" d="M199.1239,-71.8314C217.9214,-60.9167 241.7574,-47.0764 260.5531,-36.1628"/>
</g>
<!-- A13&#45;&gt;A16 -->
<g id="edge21" class="edge">
<title>A13&#45;&gt;A16</title>
<path fill="none" stroke="#000000" d="M384.5431,-71.8314C365.7456,-60.9167 341.9096,-47.0764 323.1139,-36.1628"/>
</g>
<!-- A14&#45;&gt;A16 -->
<g id="edge22" class="edge">
<title>A14&#45;&gt;A16</title>
<path fill="none" stroke="#000000" d="M483.9499,-74.7461C480.8659,-73.814 477.8081,-72.8926 474.8335,-72 432.0014,-59.1471 383.453,-44.833 347.1285,-34.1732"/>
</g>
<!-- A15&#45;&gt;A16 -->
<g id="edge23" class="edge">
<title>A15&#45;&gt;A16</title>
<path fill="none" stroke="#000000" d="M99.7171,-74.7461C102.8011,-73.814 105.8589,-72.8926 108.8335,-72 151.6656,-59.1471 200.214,-44.833 236.5385,-34.1732"/>
</g>
</g>
</svg>
