<?xml version="1.0" encoding="UTF-8" standalone="no"?>
<!DOCTYPE svg PUBLIC "-//W3C//DTD SVG 1.1//EN"
 "http://www.w3.org/Graphics/SVG/1.1/DTD/svg11.dtd">
<!-- Generated by graphviz version 2.40.1 (20161225.0304)
 -->
<!-- Title: G Pages: 1 -->
<svg width="155pt" height="85pt"
 viewBox="0.00 0.00 154.84 85.00" xmlns="http://www.w3.org/2000/svg" xmlns:xlink="http://www.w3.org/1999/xlink">
<g id="graph0" class="graph" transform="scale(1 1) rotate(0) translate(4 81)">
<title>G</title>
<!-- A0 -->
<g id="node1" class="node">
<title>A0</title>
<path fill="none" stroke="#000000" d="M49,-77C49,-77 19,-77 19,-77 13,-77 7,-71 7,-65 7,-65 7,-53 7,-53 7,-47 13,-41 19,-41 19,-41 49,-41 49,-41 55,-41 61,-47 61,-53 61,-53 61,-65 61,-65 61,-71 55,-77 49,-77"/>
<text text-anchor="middle" x="34" y="-56" font-family="Helvetica,sans-Serif" font-size="10.00" fill="#000000">● P1</text>
</g>
<!-- A1 -->
<g id="node2" class="node">
<title>A1</title>
<polygon fill="#000000" stroke="#000000" stroke-width="4" points="0,-.5 0,-4.5 36,-4.5 36,-.5 0,-.5"/>
<text text-anchor="middle" x="17.639" y="-2.2" font-family="Helvetica,sans-Serif" font-size="1.00" fill="#000000"> </text>
</g>
<!-- A0&#45;&gt;A1 -->
<g id="edge1" class="edge">
<title>A0&#45;&gt;A1:n</title>
<path fill="none" stroke="#000000" d="M25.8125,-40.7236C22.9216,-33.0847 20.0634,-23.8307 18.7489,-14.5325"/>
<polygon fill="#000000" stroke="#000000" points="18,-4.5 23.232,-14.1372 18.3723,-9.4861 18.7445,-14.4723 18.7445,-14.4723 18.7445,-14.4723 18.3723,-9.4861 14.257,-14.8073 18,-4.5 18,-4.5"/>
</g>
<!-- A2 -->
<g id="node3" class="node">
<title>A2</title>
<polygon fill="#000000" stroke="#000000" stroke-width="4" points="54,-.5 54,-4.5 90,-4.5 90,-.5 54,-.5"/>
<text text-anchor="middle" x="62.639" y="-2.2" font-family="Helvetica,sans-Serif" font-size="1.00" fill="#000000"> </text>
<polyline fill="none" stroke="#000000" stroke-width="4" points="71.2779,-.5 71.2779,-4.5 "/>
<text text-anchor="middle" x="80.4169" y="-2.2" font-family="Helvetica,sans-Serif" font-size="1.00" fill="#000000"> </text>
</g>
<!-- A0&#45;&gt;A2 -->
<g id="edge2" class="edge">
<title>A0&#45;&gt;A2:n</title>
<path fill="none" stroke="#000000" d="M49.5188,-40.5832C54.6361,-33.1489 59.5834,-24.0765 61.7943,-14.5469"/>
<polygon fill="#000000" stroke="#000000" points="63,-4.5 66.2763,-14.965 62.4042,-9.4644 61.8084,-14.4288 61.8084,-14.4288 61.8084,-14.4288 62.4042,-9.4644 57.3404,-13.8925 63,-4.5 63,-4.5"/>
</g>
<!-- A3 -->
<g id="node4" class="node">
<title>A3</title>
<path fill="none" stroke="#000000" d="M134.6818,-77C134.6818,-77 99.3182,-77 99.3182,-77 93.3182,-77 87.3182,-71 87.3182,-65 87.3182,-65 87.3182,-53 87.3182,-53 87.3182,-47 93.3182,-41 99.3182,-41 99.3182,-41 134.6818,-41 134.6818,-41 140.6818,-41 146.6818,-47 146.6818,-53 146.6818,-53 146.6818,-65 146.6818,-65 146.6818,-71 140.6818,-77 134.6818,-77"/>
<text text-anchor="middle" x="117" y="-56" font-family="Helvetica,sans-Serif" font-size="10.00" fill="#000000">●● P2</text>
</g>
<!-- A3&#45;&gt;A2 -->
<g id="edge4" class="edge">
<title>A3&#45;&gt;A2:n</title>
<path fill="none" stroke="#000000" d="M96.7679,-40.8181C90.2894,-33.4968 84.0967,-24.448 81.4053,-14.5916"/>
<polygon fill="#000000" stroke="#000000" points="80,-4.5 85.8363,-13.7838 80.6896,-9.4522 81.3793,-14.4044 81.3793,-14.4044 81.3793,-14.4044 80.6896,-9.4522 76.9223,-15.0251 80,-4.5 80,-4.5"/>
</g>
<!-- A4 -->
<g id="node5" class="node">
<title>A4</title>
<polygon fill="#000000" stroke="#000000" stroke-width="4" points="108,-.5 108,-4.5 144,-4.5 144,-.5 108,-.5"/>
<text text-anchor="middle" x="125.639" y="-2.2" font-family="Helvetica,sans-Serif" font-size="1.00" fill="#000000"> </text>
</g>
<!-- A3&#45;&gt;A4 -->
<g id="edge3" class="edge">
<title>A3&#45;&gt;A4:n</title>
<path fill="none" stroke="#000000" d="M121.5,-40.9564C123.1348,-33.2866 124.7695,-23.9969 125.5413,-14.7819"/>
<polygon fill="#000000" stroke="#000000" points="126,-4.5 130.0498,-14.6907 125.7771,-9.495 125.5542,-14.4901 125.5542,-14.4901 125.5542,-14.4901 125.7771,-9.495 121.0587,-14.2895 126,-4.5 126,-4.5"/>
</g>
</g>
</svg>
