<?xml version="1.0" encoding="UTF-8" standalone="no"?>
<!DOCTYPE svg PUBLIC "-//W3C//DTD SVG 1.1//EN"
 "http://www.w3.org/Graphics/SVG/1.1/DTD/svg11.dtd">
<!-- Generated by graphviz version 2.40.1 (20161225.0304)
 -->
<!-- Title: G Pages: 1 -->
<svg width="170pt" height="188pt"
 viewBox="0.00 0.00 170.00 188.00" xmlns="http://www.w3.org/2000/svg" xmlns:xlink="http://www.w3.org/1999/xlink">
<g id="graph0" class="graph" transform="scale(1 1) rotate(0) translate(4 184)">
<title>G</title>
<!-- A0 -->
<g id="node1" class="node">
<title>A0</title>
<path fill="none" stroke="#000000" d="M78,-180C78,-180 48,-180 48,-180 42,-180 36,-174 36,-168 36,-168 36,-156 36,-156 36,-150 42,-144 48,-144 48,-144 78,-144 78,-144 84,-144 90,-150 90,-156 90,-156 90,-168 90,-168 90,-174 84,-180 78,-180"/>
<text text-anchor="middle" x="63" y="-159" font-family="Helvetica,sans-Serif" font-size="10.00" fill="#000000">â— P1</text>
</g>
<!-- A1 -->
<g id="node2" class="node">
<title>A1</title>
<path fill="none" stroke="#000000" d="M42,-108C42,-108 12,-108 12,-108 6,-108 0,-102 0,-96 0,-96 0,-84 0,-84 0,-78 6,-72 12,-72 12,-72 42,-72 42,-72 48,-72 54,-78 54,-84 54,-84 54,-96 54,-96 54,-102 48,-108 42,-108"/>
<text text-anchor="middle" x="27" y="-87" font-family="Helvetica,sans-Serif" font-size="10.00" fill="#000000">P4</text>
</g>
<!-- A0&#45;&gt;A1 -->
<g id="edge1" class="edge">
<title>A0&#45;&gt;A1</title>
<path fill="none" stroke="#000000" d="M53.9157,-143.8314C49.9385,-135.8771 45.1845,-126.369 40.7861,-117.5723"/>
<polygon fill="#000000" stroke="#000000" points="36.2066,-108.4133 44.7038,-115.3451 38.4427,-112.8854 40.6788,-117.3575 40.6788,-117.3575 40.6788,-117.3575 38.4427,-112.8854 36.6539,-119.37 36.2066,-108.4133 36.2066,-108.4133"/>
</g>
<!-- A2 -->
<g id="node3" class="node">
<title>A2</title>
<path fill="none" stroke="#000000" d="M114,-108C114,-108 84,-108 84,-108 78,-108 72,-102 72,-96 72,-96 72,-84 72,-84 72,-78 78,-72 84,-72 84,-72 114,-72 114,-72 120,-72 126,-78 126,-84 126,-84 126,-96 126,-96 126,-102 120,-108 114,-108"/>
<text text-anchor="middle" x="99" y="-87" font-family="Helvetica,sans-Serif" font-size="10.00" fill="#000000">P2</text>
</g>
<!-- A0&#45;&gt;A2 -->
<g id="edge2" class="edge">
<title>A0&#45;&gt;A2</title>
<path fill="none" stroke="#000000" d="M72.0843,-143.8314C76.0615,-135.8771 80.8155,-126.369 85.2139,-117.5723"/>
<polygon fill="#000000" stroke="#000000" points="89.7934,-108.4133 89.3461,-119.37 87.5573,-112.8854 85.3212,-117.3575 85.3212,-117.3575 85.3212,-117.3575 87.5573,-112.8854 81.2962,-115.3451 89.7934,-108.4133 89.7934,-108.4133"/>
</g>
<!-- A3 -->
<g id="node4" class="node">
<title>A3</title>
<path fill="none" stroke="#000000" d="M78,-36C78,-36 48,-36 48,-36 42,-36 36,-30 36,-24 36,-24 36,-12 36,-12 36,-6 42,0 48,0 48,0 78,0 78,0 84,0 90,-6 90,-12 90,-12 90,-24 90,-24 90,-30 84,-36 78,-36"/>
<text text-anchor="middle" x="63" y="-15" font-family="Helvetica,sans-Serif" font-size="10.00" fill="#000000">P5</text>
</g>
<!-- A2&#45;&gt;A3 -->
<g id="edge3" class="edge">
<title>A2&#45;&gt;A3</title>
<path fill="none" stroke="#000000" d="M89.9157,-71.8314C85.9385,-63.8771 81.1845,-54.369 76.7861,-45.5723"/>
<polygon fill="#000000" stroke="#000000" points="72.2066,-36.4133 80.7038,-43.3451 74.4427,-40.8854 76.6788,-45.3575 76.6788,-45.3575 76.6788,-45.3575 74.4427,-40.8854 72.6539,-47.37 72.2066,-36.4133 72.2066,-36.4133"/>
</g>
<!-- A4 -->
<g id="node5" class="node">
<title>A4</title>
<path fill="none" stroke="#000000" d="M150,-36C150,-36 120,-36 120,-36 114,-36 108,-30 108,-24 108,-24 108,-12 108,-12 108,-6 114,0 120,0 120,0 150,0 150,0 156,0 162,-6 162,-12 162,-12 162,-24 162,-24 162,-30 156,-36 150,-36"/>
<text text-anchor="middle" x="135" y="-15" font-family="Helvetica,sans-Serif" font-size="10.00" fill="#000000">P6</text>
</g>
<!-- A2&#45;&gt;A4 -->
<g id="edge4" class="edge">
<title>A2&#45;&gt;A4</title>
<path fill="none" stroke="#000000" d="M108.0843,-71.8314C112.0615,-63.8771 116.8155,-54.369 121.2139,-45.5723"/>
<polygon fill="#000000" stroke="#000000" points="125.7934,-36.4133 125.3461,-47.37 123.5573,-40.8854 121.3212,-45.3575 121.3212,-45.3575 121.3212,-45.3575 123.5573,-40.8854 117.2962,-43.3451 125.7934,-36.4133 125.7934,-36.4133"/>
</g>
</g>
</svg>
