<?xml version="1.0" encoding="UTF-8" standalone="no"?>
<!DOCTYPE svg PUBLIC "-//W3C//DTD SVG 1.1//EN"
 "http://www.w3.org/Graphics/SVG/1.1/DTD/svg11.dtd">
<!-- Generated by graphviz version 2.40.1 (20161225.0304)
 -->
<!-- Title: G Pages: 1 -->
<svg width="206pt" height="157pt"
 viewBox="0.00 0.00 206.00 157.00" xmlns="http://www.w3.org/2000/svg" xmlns:xlink="http://www.w3.org/1999/xlink">
<g id="graph0" class="graph" transform="scale(1 1) rotate(0) translate(4 153)">
<title>G</title>
<!-- A0 -->
<g id="node1" class="node">
<title>A0</title>
<path fill="none" stroke="#000000" d="M78.6818,-149C78.6818,-149 43.3182,-149 43.3182,-149 37.3182,-149 31.3182,-143 31.3182,-137 31.3182,-137 31.3182,-125 31.3182,-125 31.3182,-119 37.3182,-113 43.3182,-113 43.3182,-113 78.6818,-113 78.6818,-113 84.6818,-113 90.6818,-119 90.6818,-125 90.6818,-125 90.6818,-137 90.6818,-137 90.6818,-143 84.6818,-149 78.6818,-149"/>
<text text-anchor="middle" x="61" y="-128" font-family="Helvetica,sans-Serif" font-size="10.00" fill="#000000">â—â— P1</text>
</g>
<!-- A1 -->
<g id="node2" class="node">
<title>A1</title>
<polygon fill="#000000" stroke="#000000" stroke-width="4" points="81,-72.5 81,-76.5 117,-76.5 117,-72.5 81,-72.5"/>
<text text-anchor="middle" x="89.6389" y="-74.2" font-family="Helvetica,sans-Serif" font-size="1.00" fill="#000000"> </text>
<polyline fill="none" stroke="#000000" stroke-width="4" points="98.2779,-72.5 98.2779,-76.5 "/>
<text text-anchor="middle" x="107.4169" y="-74.2" font-family="Helvetica,sans-Serif" font-size="1.00" fill="#000000"> </text>
</g>
<!-- A0&#45;&gt;A1 -->
<g id="edge1" class="edge">
<title>A0&#45;&gt;A1:n</title>
<path fill="none" stroke="#000000" d="M76.5188,-112.5832C81.6361,-105.1489 86.5834,-96.0765 88.7943,-86.5469"/>
<polygon fill="#000000" stroke="#000000" points="90,-76.5 93.2763,-86.965 89.4042,-81.4644 88.8084,-86.4288 88.8084,-86.4288 88.8084,-86.4288 89.4042,-81.4644 84.3404,-85.8925 90,-76.5 90,-76.5"/>
</g>
<!-- A2 -->
<g id="node3" class="node">
<title>A2</title>
<path fill="none" stroke="#000000" d="M42,-36C42,-36 12,-36 12,-36 6,-36 0,-30 0,-24 0,-24 0,-12 0,-12 0,-6 6,0 12,0 12,0 42,0 42,0 48,0 54,-6 54,-12 54,-12 54,-24 54,-24 54,-30 48,-36 42,-36"/>
<text text-anchor="middle" x="27" y="-15" font-family="Helvetica,sans-Serif" font-size="10.00" fill="#000000">P3</text>
</g>
<!-- A1&#45;&gt;A2 -->
<g id="edge2" class="edge">
<title>A1&#45;&gt;A2</title>
<path fill="none" stroke="#000000" d="M96.2654,-72.3541C89.9368,-67.3879 73.6602,-54.6153 58.4749,-42.699"/>
<polygon fill="#000000" stroke="#000000" points="50.221,-36.222 60.8661,-38.8553 54.1545,-39.3088 58.088,-42.3955 58.088,-42.3955 58.088,-42.3955 54.1545,-39.3088 55.31,-45.9356 50.221,-36.222 50.221,-36.222"/>
</g>
<!-- A4 -->
<g id="node5" class="node">
<title>A4</title>
<path fill="none" stroke="#000000" d="M114,-36C114,-36 84,-36 84,-36 78,-36 72,-30 72,-24 72,-24 72,-12 72,-12 72,-6 78,0 84,0 84,0 114,0 114,0 120,0 126,-6 126,-12 126,-12 126,-24 126,-24 126,-30 120,-36 114,-36"/>
<text text-anchor="middle" x="99" y="-15" font-family="Helvetica,sans-Serif" font-size="10.00" fill="#000000">P4</text>
</g>
<!-- A1&#45;&gt;A4 -->
<g id="edge4" class="edge">
<title>A1&#45;&gt;A4</title>
<path fill="none" stroke="#000000" d="M99,-72.0723C99,-67.4782 99,-57.0295 99,-46.5293"/>
<polygon fill="#000000" stroke="#000000" points="99,-36.2269 103.5001,-46.2269 99,-41.2269 99.0001,-46.2269 99.0001,-46.2269 99.0001,-46.2269 99,-41.2269 94.5001,-46.227 99,-36.2269 99,-36.2269"/>
</g>
<!-- A5 -->
<g id="node6" class="node">
<title>A5</title>
<path fill="none" stroke="#000000" d="M186,-36C186,-36 156,-36 156,-36 150,-36 144,-30 144,-24 144,-24 144,-12 144,-12 144,-6 150,0 156,0 156,0 186,0 186,0 192,0 198,-6 198,-12 198,-12 198,-24 198,-24 198,-30 192,-36 186,-36"/>
<text text-anchor="middle" x="171" y="-15" font-family="Helvetica,sans-Serif" font-size="10.00" fill="#000000">P5</text>
</g>
<!-- A1&#45;&gt;A5 -->
<g id="edge5" class="edge">
<title>A1&#45;&gt;A5</title>
<path fill="none" stroke="#000000" d="M101.7346,-72.3541C108.0632,-67.3879 124.3398,-54.6153 139.5251,-42.699"/>
<polygon fill="#000000" stroke="#000000" points="147.779,-36.222 142.69,-45.9356 143.8455,-39.3088 139.912,-42.3955 139.912,-42.3955 139.912,-42.3955 143.8455,-39.3088 137.1339,-38.8553 147.779,-36.222 147.779,-36.222"/>
</g>
<!-- A3 -->
<g id="node4" class="node">
<title>A3</title>
<path fill="none" stroke="#000000" d="M151,-149C151,-149 121,-149 121,-149 115,-149 109,-143 109,-137 109,-137 109,-125 109,-125 109,-119 115,-113 121,-113 121,-113 151,-113 151,-113 157,-113 163,-119 163,-125 163,-125 163,-137 163,-137 163,-143 157,-149 151,-149"/>
<text text-anchor="middle" x="136" y="-128" font-family="Helvetica,sans-Serif" font-size="10.00" fill="#000000">â— P2</text>
</g>
<!-- A3&#45;&gt;A1 -->
<g id="edge3" class="edge">
<title>A3&#45;&gt;A1:n</title>
<path fill="none" stroke="#000000" d="M120.4812,-112.5832C115.3639,-105.1489 110.4166,-96.0765 108.2057,-86.5469"/>
<polygon fill="#000000" stroke="#000000" points="107,-76.5 112.6596,-85.8925 107.5958,-81.4644 108.1916,-86.4288 108.1916,-86.4288 108.1916,-86.4288 107.5958,-81.4644 103.7237,-86.965 107,-76.5 107,-76.5"/>
</g>
</g>
</svg>
