<?xml version="1.0" encoding="UTF-8" standalone="no"?>
<!DOCTYPE svg PUBLIC "-//W3C//DTD SVG 1.1//EN"
 "http://www.w3.org/Graphics/SVG/1.1/DTD/svg11.dtd">
<!-- Generated by graphviz version 2.40.1 (20161225.0304)
 -->
<!-- Title: G Pages: 1 -->
<svg width="206pt" height="157pt"
 viewBox="0.00 0.00 206.00 157.00" xmlns="http://www.w3.org/2000/svg" xmlns:xlink="http://www.w3.org/1999/xlink">
<g id="graph0" class="graph" transform="scale(1 1) rotate(0) translate(4 153)">
<title>G</title>
<!-- A0 -->
<g id="node1" class="node">
<title>A0</title>
<path fill="none" stroke="#000000" d="M82.5751,-149C82.5751,-149 23.4249,-149 23.4249,-149 17.4249,-149 11.4249,-143 11.4249,-137 11.4249,-137 11.4249,-125 11.4249,-125 11.4249,-119 17.4249,-113 23.4249,-113 23.4249,-113 82.5751,-113 82.5751,-113 88.5751,-113 94.5751,-119 94.5751,-125 94.5751,-125 94.5751,-137 94.5751,-137 94.5751,-143 88.5751,-149 82.5751,-149"/>
<text text-anchor="middle" x="53" y="-128" font-family="Helvetica,sans-Serif" font-size="10.00" fill="#000000">⚫️ ⚫️ P1</text>
</g>
<!-- A1 -->
<g id="node2" class="node">
<title>A1</title>
<polygon fill="#000000" stroke="#000000" stroke-width="4" points="81,-72.5 81,-76.5 117,-76.5 117,-72.5 81,-72.5"/>
<text text-anchor="middle" x="89.6389" y="-74.2" font-family="Helvetica,sans-Serif" font-size="1.00" fill="#000000"> </text>
<polyline fill="none" stroke="#000000" stroke-width="4" points="98.2779,-72.5 98.2779,-76.5 "/>
<text text-anchor="middle" x="107.4169" y="-74.2" font-family="Helvetica,sans-Serif" font-size="1.00" fill="#000000"> </text>
</g>
<!-- A0&#45;&gt;A1 -->
<g id="edge1" class="edge">
<title>A0&#45;&gt;A1:n</title>
<path fill="none" stroke="#000000" d="M73.2321,-112.8181C79.7106,-105.4968 85.9033,-96.448 88.5947,-86.5916"/>
<polygon fill="#000000" stroke="#000000" points="90,-76.5 93.0777,-87.0251 89.3104,-81.4522 88.6207,-86.4044 88.6207,-86.4044 88.6207,-86.4044 89.3104,-81.4522 84.1637,-85.7838 90,-76.5 90,-76.5"/>
</g>
<!-- A2 -->
<g id="node3" class="node">
<title>A2</title>
<path fill="none" stroke="#000000" d="M42,-36C42,-36 12,-36 12,-36 6,-36 0,-30 0,-24 0,-24 0,-12 0,-12 0,-6 6,0 12,0 12,0 42,0 42,0 48,0 54,-6 54,-12 54,-12 54,-24 54,-24 54,-30 48,-36 42,-36"/>
<text text-anchor="middle" x="27" y="-15" font-family="Helvetica,sans-Serif" font-size="10.00" fill="#000000">P3</text>
</g>
<!-- A1&#45;&gt;A2 -->
<g id="edge2" class="edge">
<title>A1&#45;&gt;A2</title>
<path fill="none" stroke="#000000" d="M96.2654,-72.3541C89.9368,-67.3879 73.6602,-54.6153 58.4749,-42.699"/>
<polygon fill="#000000" stroke="#000000" points="50.221,-36.222 60.8661,-38.8553 54.1545,-39.3088 58.088,-42.3955 58.088,-42.3955 58.088,-42.3955 54.1545,-39.3088 55.31,-45.9356 50.221,-36.222 50.221,-36.222"/>
</g>
<!-- A4 -->
<g id="node5" class="node">
<title>A4</title>
<path fill="none" stroke="#000000" d="M114,-36C114,-36 84,-36 84,-36 78,-36 72,-30 72,-24 72,-24 72,-12 72,-12 72,-6 78,0 84,0 84,0 114,0 114,0 120,0 126,-6 126,-12 126,-12 126,-24 126,-24 126,-30 120,-36 114,-36"/>
<text text-anchor="middle" x="99" y="-15" font-family="Helvetica,sans-Serif" font-size="10.00" fill="#000000">P4</text>
</g>
<!-- A1&#45;&gt;A4 -->
<g id="edge4" class="edge">
<title>A1&#45;&gt;A4</title>
<path fill="none" stroke="#000000" d="M99,-72.0723C99,-67.4782 99,-57.0295 99,-46.5293"/>
<polygon fill="#000000" stroke="#000000" points="99,-36.2269 103.5001,-46.2269 99,-41.2269 99.0001,-46.2269 99.0001,-46.2269 99.0001,-46.2269 99,-41.2269 94.5001,-46.227 99,-36.2269 99,-36.2269"/>
</g>
<!-- A5 -->
<g id="node6" class="node">
<title>A5</title>
<path fill="none" stroke="#000000" d="M186,-36C186,-36 156,-36 156,-36 150,-36 144,-30 144,-24 144,-24 144,-12 144,-12 144,-6 150,0 156,0 156,0 186,0 186,0 192,0 198,-6 198,-12 198,-12 198,-24 198,-24 198,-30 192,-36 186,-36"/>
<text text-anchor="middle" x="171" y="-15" font-family="Helvetica,sans-Serif" font-size="10.00" fill="#000000">P5</text>
</g>
<!-- A1&#45;&gt;A5 -->
<g id="edge5" class="edge">
<title>A1&#45;&gt;A5</title>
<path fill="none" stroke="#000000" d="M101.7346,-72.3541C108.0632,-67.3879 124.3398,-54.6153 139.5251,-42.699"/>
<polygon fill="#000000" stroke="#000000" points="147.779,-36.222 142.69,-45.9356 143.8455,-39.3088 139.912,-42.3955 139.912,-42.3955 139.912,-42.3955 143.8455,-39.3088 137.1339,-38.8553 147.779,-36.222 147.779,-36.222"/>
</g>
<!-- A3 -->
<g id="node4" class="node">
<title>A3</title>
<path fill="none" stroke="#000000" d="M162.9011,-149C162.9011,-149 125.0989,-149 125.0989,-149 119.0989,-149 113.0989,-143 113.0989,-137 113.0989,-137 113.0989,-125 113.0989,-125 113.0989,-119 119.0989,-113 125.0989,-113 125.0989,-113 162.9011,-113 162.9011,-113 168.9011,-113 174.9011,-119 174.9011,-125 174.9011,-125 174.9011,-137 174.9011,-137 174.9011,-143 168.9011,-149 162.9011,-149"/>
<text text-anchor="middle" x="144" y="-128" font-family="Helvetica,sans-Serif" font-size="10.00" fill="#000000">⚫️ P2</text>
</g>
<!-- A3&#45;&gt;A1 -->
<g id="edge3" class="edge">
<title>A3&#45;&gt;A1:n</title>
<path fill="none" stroke="#000000" d="M123.7679,-112.8181C117.2894,-105.4968 111.0967,-96.448 108.4053,-86.5916"/>
<polygon fill="#000000" stroke="#000000" points="107,-76.5 112.8363,-85.7838 107.6896,-81.4522 108.3793,-86.4044 108.3793,-86.4044 108.3793,-86.4044 107.6896,-81.4522 103.9223,-87.0251 107,-76.5 107,-76.5"/>
</g>
</g>
</svg>
