<?xml version="1.0" encoding="UTF-8" standalone="no"?>
<!DOCTYPE svg PUBLIC "-//W3C//DTD SVG 1.1//EN"
 "http://www.w3.org/Graphics/SVG/1.1/DTD/svg11.dtd">
<!-- Generated by graphviz version 2.40.1 (20161225.0304)
 -->
<!-- Title: G Pages: 1 -->
<svg width="170pt" height="201pt"
 viewBox="0.00 0.00 170.00 201.00" xmlns="http://www.w3.org/2000/svg" xmlns:xlink="http://www.w3.org/1999/xlink">
<g id="graph0" class="graph" transform="scale(1 1) rotate(0) translate(4 197)">
<title>G</title>
<!-- A0 -->
<g id="node1" class="node">
<title>A0</title>
<path fill="none" stroke="#000000" d="M60,-193C60,-193 30,-193 30,-193 24,-193 18,-187 18,-181 18,-181 18,-169 18,-169 18,-163 24,-157 30,-157 30,-157 60,-157 60,-157 66,-157 72,-163 72,-169 72,-169 72,-181 72,-181 72,-187 66,-193 60,-193"/>
<text text-anchor="middle" x="45" y="-172" font-family="Helvetica,sans-Serif" font-size="10.00" fill="#000000">● P1</text>
</g>
<!-- A1 -->
<g id="node2" class="node">
<title>A1</title>
<path fill="none" stroke="#000000" d="M42,-109C42,-109 12,-109 12,-109 6,-109 0,-103 0,-97 0,-97 0,-85 0,-85 0,-79 6,-73 12,-73 12,-73 42,-73 42,-73 48,-73 54,-79 54,-85 54,-85 54,-97 54,-97 54,-103 48,-109 42,-109"/>
<text text-anchor="middle" x="27" y="-88" font-family="Helvetica,sans-Serif" font-size="10.00" fill="#000000">P4</text>
</g>
<!-- A0&#45;&gt;A1 -->
<g id="edge1" class="edge">
<title>A0&#45;&gt;A1</title>
<path fill="none" stroke="#000000" d="M41.0943,-156.7733C38.7355,-145.7657 35.6807,-131.5098 33.0183,-119.0854"/>
<polygon fill="#000000" stroke="#000000" points="30.8981,-109.1912 37.3936,-118.0263 31.9458,-114.0802 32.9935,-118.9692 32.9935,-118.9692 32.9935,-118.9692 31.9458,-114.0802 28.5934,-119.9121 30.8981,-109.1912 30.8981,-109.1912"/>
<text text-anchor="middle" x="48.8375" y="-130" font-family="Helvetica,sans-Serif" font-size="10.00" fill="#000000">[test]</text>
</g>
<!-- A2 -->
<g id="node3" class="node">
<title>A2</title>
<path fill="none" stroke="#000000" d="M114,-109C114,-109 84,-109 84,-109 78,-109 72,-103 72,-97 72,-97 72,-85 72,-85 72,-79 78,-73 84,-73 84,-73 114,-73 114,-73 120,-73 126,-79 126,-85 126,-85 126,-97 126,-97 126,-103 120,-109 114,-109"/>
<text text-anchor="middle" x="99" y="-88" font-family="Helvetica,sans-Serif" font-size="10.00" fill="#000000">● P2</text>
</g>
<!-- A0&#45;&gt;A2 -->
<g id="edge2" class="edge">
<title>A0&#45;&gt;A2</title>
<path fill="none" stroke="#000000" d="M56.7172,-156.7733C64.0765,-145.3254 73.6945,-130.3641 81.8977,-117.6036"/>
<polygon fill="#000000" stroke="#000000" points="87.3057,-109.1912 85.6834,-120.0364 84.6019,-113.3971 81.898,-117.603 81.898,-117.603 81.898,-117.603 84.6019,-113.3971 78.1127,-115.1695 87.3057,-109.1912 87.3057,-109.1912"/>
</g>
<!-- A3 -->
<g id="node4" class="node">
<title>A3</title>
<path fill="none" stroke="#000000" d="M78,-36C78,-36 48,-36 48,-36 42,-36 36,-30 36,-24 36,-24 36,-12 36,-12 36,-6 42,0 48,0 48,0 78,0 78,0 84,0 90,-6 90,-12 90,-12 90,-24 90,-24 90,-30 84,-36 78,-36"/>
<text text-anchor="middle" x="63" y="-15" font-family="Helvetica,sans-Serif" font-size="10.00" fill="#000000">P5</text>
</g>
<!-- A2&#45;&gt;A3 -->
<g id="edge3" class="edge">
<title>A2&#45;&gt;A3</title>
<path fill="none" stroke="#000000" d="M90.1011,-72.9551C85.9905,-64.6196 81.0205,-54.5416 76.4651,-45.3042"/>
<polygon fill="#000000" stroke="#000000" points="71.9213,-36.0904 80.3802,-43.0687 74.1328,-40.5747 76.3443,-45.0591 76.3443,-45.0591 76.3443,-45.0591 74.1328,-40.5747 72.3083,-47.0494 71.9213,-36.0904 71.9213,-36.0904"/>
</g>
<!-- A4 -->
<g id="node5" class="node">
<title>A4</title>
<path fill="none" stroke="#000000" d="M150,-36C150,-36 120,-36 120,-36 114,-36 108,-30 108,-24 108,-24 108,-12 108,-12 108,-6 114,0 120,0 120,0 150,0 150,0 156,0 162,-6 162,-12 162,-12 162,-24 162,-24 162,-30 156,-36 150,-36"/>
<text text-anchor="middle" x="135" y="-15" font-family="Helvetica,sans-Serif" font-size="10.00" fill="#000000">● P6</text>
</g>
<!-- A2&#45;&gt;A4 -->
<g id="edge4" class="edge">
<title>A2&#45;&gt;A4</title>
<path fill="none" stroke="#000000" d="M107.8989,-72.9551C112.0095,-64.6196 116.9795,-54.5416 121.5349,-45.3042"/>
<polygon fill="#000000" stroke="#000000" points="126.0787,-36.0904 125.6917,-47.0494 123.8672,-40.5747 121.6557,-45.0591 121.6557,-45.0591 121.6557,-45.0591 123.8672,-40.5747 117.6198,-43.0687 126.0787,-36.0904 126.0787,-36.0904"/>
</g>
</g>
</svg>
