<?xml version="1.0" encoding="UTF-8" standalone="no"?>
<!DOCTYPE svg PUBLIC "-//W3C//DTD SVG 1.1//EN"
 "http://www.w3.org/Graphics/SVG/1.1/DTD/svg11.dtd">
<!-- Generated by graphviz version 2.40.1 (20161225.0304)
 -->
<!-- Title: G Pages: 1 -->
<svg width="143pt" height="170pt"
 viewBox="0.00 0.00 143.00 170.00" xmlns="http://www.w3.org/2000/svg" xmlns:xlink="http://www.w3.org/1999/xlink">
<g id="graph0" class="graph" transform="scale(1 1) rotate(0) translate(4 166)">
<title>G</title>
<!-- A0 -->
<g id="node1" class="node">
<title>A0</title>
<polygon fill="#000000" stroke="#000000" stroke-width="4" points="63,-146 27,-146 27,-142 63,-142 63,-146"/>
</g>
<!-- A1 -->
<g id="node2" class="node">
<title>A1</title>
<path fill="none" stroke="#000000" d="M60,-89C60,-89 30,-89 30,-89 24,-89 18,-83 18,-77 18,-77 18,-65 18,-65 18,-59 24,-53 30,-53 30,-53 60,-53 60,-53 66,-53 72,-59 72,-65 72,-65 72,-77 72,-77 72,-83 66,-89 60,-89"/>
<text text-anchor="middle" x="45" y="-68" font-family="Helvetica,sans-Serif" font-size="10.00" fill="#000000">P1</text>
</g>
<!-- A0&#45;&gt;A1 -->
<g id="edge1" class="edge">
<title>A0&#45;&gt;A1</title>
<path fill="none" stroke="#000000" d="M45,-141.894C45,-135.5829 45,-116.2168 45,-99.3177"/>
<polygon fill="#000000" stroke="#000000" points="45,-89.2532 49.5001,-99.2532 45,-94.2532 45.0001,-99.2532 45.0001,-99.2532 45.0001,-99.2532 45,-94.2532 40.5001,-99.2533 45,-89.2532 45,-89.2532"/>
</g>
<!-- A2 -->
<g id="node3" class="node">
<title>A2</title>
<polygon fill="#000000" stroke="#000000" stroke-width="4" points="0,-.5 0,-4.5 36,-4.5 36,-.5 0,-.5"/>
<text text-anchor="middle" x="17.639" y="-2.2" font-family="Helvetica,sans-Serif" font-size="1.00" fill="#000000"> </text>
</g>
<!-- A1&#45;&gt;A2 -->
<g id="edge2" class="edge">
<title>A1&#45;&gt;A2:n</title>
<path fill="none" stroke="#000000" d="M33.236,-52.8789C27.3811,-42.4645 21.0833,-28.6995 18.8465,-14.6951"/>
<polygon fill="#000000" stroke="#000000" points="18,-4.5 23.3122,-14.0933 18.4138,-9.4829 18.8276,-14.4657 18.8276,-14.4657 18.8276,-14.4657 18.4138,-9.4829 14.343,-14.8381 18,-4.5 18,-4.5"/>
<text text-anchor="middle" x="35.8375" y="-26" font-family="Helvetica,sans-Serif" font-size="10.00" fill="#000000">[test]</text>
</g>
<!-- A3 -->
<g id="node4" class="node">
<title>A3</title>
<polygon fill="#000000" stroke="#000000" stroke-width="4" points="54,-.5 54,-4.5 90,-4.5 90,-.5 54,-.5"/>
<text text-anchor="middle" x="71.6389" y="-2.2" font-family="Helvetica,sans-Serif" font-size="1.00" fill="#000000"> </text>
</g>
<!-- A1&#45;&gt;A3 -->
<g id="edge3" class="edge">
<title>A1&#45;&gt;A3:n</title>
<path fill="none" stroke="#000000" d="M56.764,-52.8789C62.6189,-42.4645 68.9167,-28.6995 71.1535,-14.6951"/>
<polygon fill="#000000" stroke="#000000" points="72,-4.5 75.657,-14.8381 71.5862,-9.4829 71.1724,-14.4657 71.1724,-14.4657 71.1724,-14.4657 71.5862,-9.4829 66.6878,-14.0933 72,-4.5 72,-4.5"/>
<text text-anchor="middle" x="79.8375" y="-26" font-family="Helvetica,sans-Serif" font-size="10.00" fill="#000000">[test]</text>
</g>
<!-- A4 -->
<g id="node5" class="node">
<title>A4</title>
<path fill="none" stroke="#000000" d="M123,-162C123,-162 93,-162 93,-162 87,-162 81,-156 81,-150 81,-150 81,-138 81,-138 81,-132 87,-126 93,-126 93,-126 123,-126 123,-126 129,-126 135,-132 135,-138 135,-138 135,-150 135,-150 135,-156 129,-162 123,-162"/>
<text text-anchor="middle" x="108" y="-141" font-family="Helvetica,sans-Serif" font-size="10.00" fill="#000000">abc</text>
</g>
</g>
</svg>
