<?xml version="1.0" encoding="UTF-8" standalone="no"?>
<!DOCTYPE svg PUBLIC "-//W3C//DTD SVG 1.1//EN"
 "http://www.w3.org/Graphics/SVG/1.1/DTD/svg11.dtd">
<!-- Generated by graphviz version 2.40.1 (20161225.0304)
 -->
<!-- Title: G Pages: 1 -->
<svg width="158pt" height="85pt"
 viewBox="0.00 0.00 157.95 85.00" xmlns="http://www.w3.org/2000/svg" xmlns:xlink="http://www.w3.org/1999/xlink">
<g id="graph0" class="graph" transform="scale(1 1) rotate(0) translate(4 81)">
<title>G</title>
<!-- A0 -->
<g id="node1" class="node">
<title>A0</title>
<path fill="none" stroke="#000000" d="M50.9011,-77C50.9011,-77 13.0989,-77 13.0989,-77 7.0989,-77 1.0989,-71 1.0989,-65 1.0989,-65 1.0989,-53 1.0989,-53 1.0989,-47 7.0989,-41 13.0989,-41 13.0989,-41 50.9011,-41 50.9011,-41 56.9011,-41 62.9011,-47 62.9011,-53 62.9011,-53 62.9011,-65 62.9011,-65 62.9011,-71 56.9011,-77 50.9011,-77"/>
<text text-anchor="middle" x="32" y="-56" font-family="Helvetica,sans-Serif" font-size="10.00" fill="#000000">⚫️ P1</text>
</g>
<!-- A1 -->
<g id="node2" class="node">
<title>A1</title>
<polygon fill="#000000" stroke="#000000" stroke-width="4" points="0,-.5 0,-4.5 36,-4.5 36,-.5 0,-.5"/>
<text text-anchor="middle" x="17.639" y="-2.2" font-family="Helvetica,sans-Serif" font-size="1.00" fill="#000000"> </text>
</g>
<!-- A0&#45;&gt;A1 -->
<g id="edge1" class="edge">
<title>A0&#45;&gt;A1:n</title>
<path fill="none" stroke="#000000" d="M24.836,-40.6338C22.3333,-33.0558 19.8587,-23.9126 18.6925,-14.7579"/>
<polygon fill="#000000" stroke="#000000" points="18,-4.5 23.1634,-14.1742 18.3368,-9.4886 18.6736,-14.4773 18.6736,-14.4773 18.6736,-14.4773 18.3368,-9.4886 14.1838,-14.7804 18,-4.5 18,-4.5"/>
</g>
<!-- A2 -->
<g id="node3" class="node">
<title>A2</title>
<polygon fill="#000000" stroke="#000000" stroke-width="4" points="54,-.5 54,-4.5 90,-4.5 90,-.5 54,-.5"/>
<text text-anchor="middle" x="62.639" y="-2.2" font-family="Helvetica,sans-Serif" font-size="1.00" fill="#000000"> </text>
<polyline fill="none" stroke="#000000" stroke-width="4" points="71.2779,-.5 71.2779,-4.5 "/>
<text text-anchor="middle" x="80.4169" y="-2.2" font-family="Helvetica,sans-Serif" font-size="1.00" fill="#000000"> </text>
</g>
<!-- A0&#45;&gt;A2 -->
<g id="edge2" class="edge">
<title>A0&#45;&gt;A2:n</title>
<path fill="none" stroke="#000000" d="M48.589,-40.7511C54.0593,-33.3509 59.3478,-24.282 61.7111,-14.6684"/>
<polygon fill="#000000" stroke="#000000" points="63,-4.5 66.2067,-14.9865 62.3712,-9.4603 61.7424,-14.4206 61.7424,-14.4206 61.7424,-14.4206 62.3712,-9.4603 57.2782,-13.8547 63,-4.5 63,-4.5"/>
</g>
<!-- A3 -->
<g id="node4" class="node">
<title>A3</title>
<path fill="none" stroke="#000000" d="M137.9011,-77C137.9011,-77 100.0989,-77 100.0989,-77 94.0989,-77 88.0989,-71 88.0989,-65 88.0989,-65 88.0989,-53 88.0989,-53 88.0989,-47 94.0989,-41 100.0989,-41 100.0989,-41 137.9011,-41 137.9011,-41 143.9011,-41 149.9011,-47 149.9011,-53 149.9011,-53 149.9011,-65 149.9011,-65 149.9011,-71 143.9011,-77 137.9011,-77"/>
<text text-anchor="middle" x="119" y="-56" font-family="Helvetica,sans-Serif" font-size="10.00" fill="#000000">⚫️ P2</text>
</g>
<!-- A3&#45;&gt;A2 -->
<g id="edge4" class="edge">
<title>A3&#45;&gt;A2:n</title>
<path fill="none" stroke="#000000" d="M97.2195,-40.5317C90.5194,-33.2937 84.1835,-24.3675 81.4343,-14.5648"/>
<polygon fill="#000000" stroke="#000000" points="80,-4.5 85.8659,-13.7651 80.7054,-9.45 81.4109,-14.4 81.4109,-14.4 81.4109,-14.4 80.7054,-9.45 76.9559,-15.0349 80,-4.5 80,-4.5"/>
</g>
<!-- A4 -->
<g id="node5" class="node">
<title>A4</title>
<polygon fill="#000000" stroke="#000000" stroke-width="4" points="108,-.5 108,-4.5 144,-4.5 144,-.5 108,-.5"/>
<text text-anchor="middle" x="125.639" y="-2.2" font-family="Helvetica,sans-Serif" font-size="1.00" fill="#000000"> </text>
</g>
<!-- A3&#45;&gt;A4 -->
<g id="edge3" class="edge">
<title>A3&#45;&gt;A4:n</title>
<path fill="none" stroke="#000000" d="M122.5,-40.908C123.7715,-33.2265 125.043,-23.9335 125.6432,-14.7424"/>
<polygon fill="#000000" stroke="#000000" points="126,-4.5 130.1491,-14.6506 125.8259,-9.497 125.6518,-14.4939 125.6518,-14.4939 125.6518,-14.4939 125.8259,-9.497 121.1545,-14.3373 126,-4.5 126,-4.5"/>
</g>
</g>
</svg>
