<?xml version="1.0" encoding="UTF-8" standalone="no"?>
<!DOCTYPE svg PUBLIC "-//W3C//DTD SVG 1.1//EN"
 "http://www.w3.org/Graphics/SVG/1.1/DTD/svg11.dtd">
<!-- Generated by graphviz version 2.40.1 (20161225.0304)
 -->
<!-- Title: G Pages: 1 -->
<svg width="152pt" height="85pt"
 viewBox="0.00 0.00 152.00 85.00" xmlns="http://www.w3.org/2000/svg" xmlns:xlink="http://www.w3.org/1999/xlink">
<g id="graph0" class="graph" transform="scale(1 1) rotate(0) translate(4 81)">
<title>G</title>
<!-- A0 -->
<g id="node1" class="node">
<title>A0</title>
<path fill="none" stroke="#000000" d="M42,-77C42,-77 12,-77 12,-77 6,-77 0,-71 0,-65 0,-65 0,-53 0,-53 0,-47 6,-41 12,-41 12,-41 42,-41 42,-41 48,-41 54,-47 54,-53 54,-53 54,-65 54,-65 54,-71 48,-77 42,-77"/>
<text text-anchor="middle" x="27" y="-56" font-family="Helvetica,sans-Serif" font-size="10.00" fill="#000000">â— P1</text>
</g>
<!-- A1 -->
<g id="node2" class="node">
<title>A1</title>
<polygon fill="#000000" stroke="#000000" stroke-width="4" points="0,-.5 0,-4.5 36,-4.5 36,-.5 0,-.5"/>
<text text-anchor="middle" x="17.639" y="-2.2" font-family="Helvetica,sans-Serif" font-size="1.00" fill="#000000"> </text>
</g>
<!-- A0&#45;&gt;A1 -->
<g id="edge1" class="edge">
<title>A0&#45;&gt;A1:n</title>
<path fill="none" stroke="#000000" d="M22.5,-40.9564C20.8652,-33.2866 19.2305,-23.9969 18.4587,-14.7819"/>
<polygon fill="#000000" stroke="#000000" points="18,-4.5 22.9413,-14.2895 18.2229,-9.495 18.4458,-14.4901 18.4458,-14.4901 18.4458,-14.4901 18.2229,-9.495 13.9502,-14.6907 18,-4.5 18,-4.5"/>
</g>
<!-- A2 -->
<g id="node3" class="node">
<title>A2</title>
<polygon fill="#000000" stroke="#000000" stroke-width="4" points="54,-.5 54,-4.5 90,-4.5 90,-.5 54,-.5"/>
<text text-anchor="middle" x="62.639" y="-2.2" font-family="Helvetica,sans-Serif" font-size="1.00" fill="#000000"> </text>
<polyline fill="none" stroke="#000000" stroke-width="4" points="71.2779,-.5 71.2779,-4.5 "/>
<text text-anchor="middle" x="80.4169" y="-2.2" font-family="Helvetica,sans-Serif" font-size="1.00" fill="#000000"> </text>
</g>
<!-- A0&#45;&gt;A2 -->
<g id="edge2" class="edge">
<title>A0&#45;&gt;A2:n</title>
<path fill="none" stroke="#000000" d="M46.6853,-40.7199C52.9887,-33.3799 59.014,-24.3305 61.6327,-14.5238"/>
<polygon fill="#000000" stroke="#000000" points="63,-4.5 66.1071,-15.0165 62.3242,-9.4541 61.6484,-14.4082 61.6484,-14.4082 61.6484,-14.4082 62.3242,-9.4541 57.1897,-13.8 63,-4.5 63,-4.5"/>
</g>
<!-- A3 -->
<g id="node4" class="node">
<title>A3</title>
<path fill="none" stroke="#000000" d="M132,-77C132,-77 102,-77 102,-77 96,-77 90,-71 90,-65 90,-65 90,-53 90,-53 90,-47 96,-41 102,-41 102,-41 132,-41 132,-41 138,-41 144,-47 144,-53 144,-53 144,-65 144,-65 144,-71 138,-77 132,-77"/>
<text text-anchor="middle" x="117" y="-56" font-family="Helvetica,sans-Serif" font-size="10.00" fill="#000000">â— P2</text>
</g>
<!-- A3&#45;&gt;A2 -->
<g id="edge4" class="edge">
<title>A3&#45;&gt;A2:n</title>
<path fill="none" stroke="#000000" d="M96.7679,-40.8181C90.2894,-33.4968 84.0967,-24.448 81.4053,-14.5916"/>
<polygon fill="#000000" stroke="#000000" points="80,-4.5 85.8363,-13.7838 80.6896,-9.4522 81.3793,-14.4044 81.3793,-14.4044 81.3793,-14.4044 80.6896,-9.4522 76.9223,-15.0251 80,-4.5 80,-4.5"/>
</g>
<!-- A4 -->
<g id="node5" class="node">
<title>A4</title>
<polygon fill="#000000" stroke="#000000" stroke-width="4" points="108,-.5 108,-4.5 144,-4.5 144,-.5 108,-.5"/>
<text text-anchor="middle" x="125.639" y="-2.2" font-family="Helvetica,sans-Serif" font-size="1.00" fill="#000000"> </text>
</g>
<!-- A3&#45;&gt;A4 -->
<g id="edge3" class="edge">
<title>A3&#45;&gt;A4:n</title>
<path fill="none" stroke="#000000" d="M121.5,-40.9564C123.1348,-33.2866 124.7695,-23.9969 125.5413,-14.7819"/>
<polygon fill="#000000" stroke="#000000" points="126,-4.5 130.0498,-14.6907 125.7771,-9.495 125.5542,-14.4901 125.5542,-14.4901 125.5542,-14.4901 125.7771,-9.495 121.0587,-14.2895 126,-4.5 126,-4.5"/>
</g>
</g>
</svg>
