<?xml version="1.0" encoding="UTF-8" standalone="no"?>
<!DOCTYPE svg PUBLIC "-//W3C//DTD SVG 1.1//EN"
 "http://www.w3.org/Graphics/SVG/1.1/DTD/svg11.dtd">
<!-- Generated by graphviz version 2.40.1 (20161225.0304)
 -->
<!-- Title: G Pages: 1 -->
<svg width="319pt" height="296pt"
 viewBox="0.00 0.00 318.72 296.00" xmlns="http://www.w3.org/2000/svg" xmlns:xlink="http://www.w3.org/1999/xlink">
<g id="graph0" class="graph" transform="scale(1 1) rotate(0) translate(4 292)">
<title>G</title>
<!-- A0 -->
<g id="node1" class="node">
<title>A0</title>
<path fill="none" stroke="#000000" d="M42.946,-288C42.946,-288 12.018,-288 12.018,-288 6.018,-288 .018,-282 .018,-276 .018,-276 .018,-264 .018,-264 .018,-258 6.018,-252 12.018,-252 12.018,-252 42.946,-252 42.946,-252 48.946,-252 54.946,-258 54.946,-264 54.946,-264 54.946,-276 54.946,-276 54.946,-282 48.946,-288 42.946,-288"/>
<text text-anchor="middle" x="27.482" y="-267" font-family="Helvetica,sans-Serif" font-size="10.00" fill="#000000">{p&#45;&gt;q}</text>
</g>
<!-- A1 -->
<g id="node2" class="node">
<title>A1</title>
<path fill="none" stroke="#000000" d="M42.482,-204C42.482,-204 12.482,-204 12.482,-204 6.482,-204 .482,-198 .482,-192 .482,-192 .482,-180 .482,-180 .482,-174 6.482,-168 12.482,-168 12.482,-168 42.482,-168 42.482,-168 48.482,-168 54.482,-174 54.482,-180 54.482,-180 54.482,-192 54.482,-192 54.482,-198 48.482,-204 42.482,-204"/>
<text text-anchor="middle" x="27.482" y="-183" font-family="Helvetica,sans-Serif" font-size="10.00" fill="#000000">{q&#45;&gt;r}</text>
</g>
<!-- A0&#45;&gt;A1 -->
<g id="edge1" class="edge">
<title>A0&#45;&gt;A1</title>
<path fill="none" stroke="#000000" d="M27.482,-251.7733C27.482,-240.8758 27.482,-226.7946 27.482,-214.4587"/>
<polygon fill="#000000" stroke="#000000" points="27.482,-204.1912 31.9821,-214.1911 27.482,-209.1912 27.4821,-214.1912 27.4821,-214.1912 27.4821,-214.1912 27.482,-209.1912 22.9821,-214.1912 27.482,-204.1912 27.482,-204.1912"/>
<text text-anchor="middle" x="39.4295" y="-225" font-family="Helvetica,sans-Serif" font-size="10.00" fill="#000000">[aRb]</text>
</g>
<!-- A2 -->
<g id="node3" class="node">
<title>A2</title>
<path fill="none" stroke="#000000" d="M114.482,-288C114.482,-288 84.482,-288 84.482,-288 78.482,-288 72.482,-282 72.482,-276 72.482,-276 72.482,-264 72.482,-264 72.482,-258 78.482,-252 84.482,-252 84.482,-252 114.482,-252 114.482,-252 120.482,-252 126.482,-258 126.482,-264 126.482,-264 126.482,-276 126.482,-276 126.482,-282 120.482,-288 114.482,-288"/>
<text text-anchor="middle" x="99.482" y="-267" font-family="Helvetica,sans-Serif" font-size="10.00" fill="#000000">{aRb}</text>
</g>
<!-- A3 -->
<g id="node4" class="node">
<title>A3</title>
<path fill="none" stroke="#000000" d="M114.482,-204C114.482,-204 84.482,-204 84.482,-204 78.482,-204 72.482,-198 72.482,-192 72.482,-192 72.482,-180 72.482,-180 72.482,-174 78.482,-168 84.482,-168 84.482,-168 114.482,-168 114.482,-168 120.482,-168 126.482,-174 126.482,-180 126.482,-180 126.482,-192 126.482,-192 126.482,-198 120.482,-204 114.482,-204"/>
<text text-anchor="middle" x="99.482" y="-183" font-family="Helvetica,sans-Serif" font-size="10.00" fill="#000000">{bRc}</text>
</g>
<!-- A2&#45;&gt;A3 -->
<g id="edge2" class="edge">
<title>A2&#45;&gt;A3</title>
<path fill="none" stroke="#000000" d="M99.482,-251.7733C99.482,-240.8758 99.482,-226.7946 99.482,-214.4587"/>
<polygon fill="#000000" stroke="#000000" points="99.482,-204.1912 103.9821,-214.1911 99.482,-209.1912 99.4821,-214.1912 99.4821,-214.1912 99.4821,-214.1912 99.482,-209.1912 94.9821,-214.1912 99.482,-204.1912 99.482,-204.1912"/>
<text text-anchor="middle" x="205.102" y="-225" font-family="Helvetica,sans-Serif" font-size="10.00" fill="#000000">[hdddhdddhddd.hdddhdddhddd.hdddhdddhddd]</text>
</g>
<!-- A4 -->
<g id="node5" class="node">
<title>A4</title>
<path fill="none" stroke="#000000" d="M114.482,-120C114.482,-120 84.482,-120 84.482,-120 78.482,-120 72.482,-114 72.482,-108 72.482,-108 72.482,-96 72.482,-96 72.482,-90 78.482,-84 84.482,-84 84.482,-84 114.482,-84 114.482,-84 120.482,-84 126.482,-90 126.482,-96 126.482,-96 126.482,-108 126.482,-108 126.482,-114 120.482,-120 114.482,-120"/>
<text text-anchor="middle" x="99.482" y="-99" font-family="Helvetica,sans-Serif" font-size="10.00" fill="#000000">{cRd}</text>
</g>
<!-- A3&#45;&gt;A4 -->
<g id="edge3" class="edge">
<title>A3&#45;&gt;A4</title>
<path fill="none" stroke="#000000" d="M99.482,-167.7733C99.482,-156.8758 99.482,-142.7946 99.482,-130.4587"/>
<polygon fill="#000000" stroke="#000000" points="99.482,-120.1912 103.9821,-130.1911 99.482,-125.1912 99.4821,-130.1912 99.4821,-130.1912 99.4821,-130.1912 99.482,-125.1912 94.9821,-130.1912 99.482,-120.1912 99.482,-120.1912"/>
<text text-anchor="middle" x="205.102" y="-141" font-family="Helvetica,sans-Serif" font-size="10.00" fill="#000000">[hppphdddhddd.hdddhdddhddd.hdddhdddhddd]</text>
</g>
<!-- A5 -->
<g id="node6" class="node">
<title>A5</title>
<path fill="none" stroke="#000000" d="M114.482,-36C114.482,-36 84.482,-36 84.482,-36 78.482,-36 72.482,-30 72.482,-24 72.482,-24 72.482,-12 72.482,-12 72.482,-6 78.482,0 84.482,0 84.482,0 114.482,0 114.482,0 120.482,0 126.482,-6 126.482,-12 126.482,-12 126.482,-24 126.482,-24 126.482,-30 120.482,-36 114.482,-36"/>
<text text-anchor="middle" x="99.482" y="-15" font-family="Helvetica,sans-Serif" font-size="10.00" fill="#000000">{dRe}</text>
</g>
<!-- A4&#45;&gt;A5 -->
<g id="edge4" class="edge">
<title>A4&#45;&gt;A5</title>
<path fill="none" stroke="#000000" d="M99.482,-83.7733C99.482,-72.8758 99.482,-58.7946 99.482,-46.4587"/>
<polygon fill="#000000" stroke="#000000" points="99.482,-36.1912 103.9821,-46.1911 99.482,-41.1912 99.4821,-46.1912 99.4821,-46.1912 99.4821,-46.1912 99.482,-41.1912 94.9821,-46.1912 99.482,-36.1912 99.482,-36.1912"/>
<text text-anchor="middle" x="205.102" y="-57" font-family="Helvetica,sans-Serif" font-size="10.00" fill="#000000">[hdddhppphddd.hdddhdddhddd.hdddhdddhddd]</text>
</g>
</g>
</svg>
