<?xml version="1.0" encoding="UTF-8" standalone="no"?>
<!DOCTYPE svg PUBLIC "-//W3C//DTD SVG 1.1//EN"
 "http://www.w3.org/Graphics/SVG/1.1/DTD/svg11.dtd">
<!-- Generated by graphviz version 2.40.1 (20161225.0304)
 -->
<!-- Title: G Pages: 1 -->
<svg width="821pt" height="128pt"
 viewBox="0.00 0.00 821.48 128.00" xmlns="http://www.w3.org/2000/svg" xmlns:xlink="http://www.w3.org/1999/xlink">
<g id="graph0" class="graph" transform="scale(1 1) rotate(0) translate(4 124)">
<title>G</title>
<!-- A0 -->
<g id="node1" class="node">
<title>A0</title>
<path fill="none" stroke="#000000" d="M42.946,-120C42.946,-120 12.018,-120 12.018,-120 6.018,-120 .018,-114 .018,-108 .018,-108 .018,-96 .018,-96 .018,-90 6.018,-84 12.018,-84 12.018,-84 42.946,-84 42.946,-84 48.946,-84 54.946,-90 54.946,-96 54.946,-96 54.946,-108 54.946,-108 54.946,-114 48.946,-120 42.946,-120"/>
<text text-anchor="middle" x="27.482" y="-99" font-family="Helvetica,sans-Serif" font-size="10.00" fill="#000000">{p&#45;&gt;q}</text>
</g>
<!-- A1 -->
<g id="node2" class="node">
<title>A1</title>
<path fill="none" stroke="#000000" d="M42.482,-36C42.482,-36 12.482,-36 12.482,-36 6.482,-36 .482,-30 .482,-24 .482,-24 .482,-12 .482,-12 .482,-6 6.482,0 12.482,0 12.482,0 42.482,0 42.482,0 48.482,0 54.482,-6 54.482,-12 54.482,-12 54.482,-24 54.482,-24 54.482,-30 48.482,-36 42.482,-36"/>
<text text-anchor="middle" x="27.482" y="-15" font-family="Helvetica,sans-Serif" font-size="10.00" fill="#000000">{q&#45;&gt;r}</text>
</g>
<!-- A0&#45;&gt;A1 -->
<g id="edge1" class="edge">
<title>A0&#45;&gt;A1</title>
<path fill="none" stroke="#000000" d="M27.482,-83.7733C27.482,-72.8758 27.482,-58.7946 27.482,-46.4587"/>
<polygon fill="#000000" stroke="#000000" points="27.482,-36.1912 31.9821,-46.1911 27.482,-41.1912 27.4821,-46.1912 27.4821,-46.1912 27.4821,-46.1912 27.482,-41.1912 22.9821,-46.1912 27.482,-36.1912 27.482,-36.1912"/>
<text text-anchor="middle" x="39.4295" y="-57" font-family="Helvetica,sans-Serif" font-size="10.00" fill="#000000">[aRb]</text>
</g>
<!-- A2 -->
<g id="node3" class="node">
<title>A2</title>
<path fill="none" stroke="#000000" d="M114.482,-120C114.482,-120 84.482,-120 84.482,-120 78.482,-120 72.482,-114 72.482,-108 72.482,-108 72.482,-96 72.482,-96 72.482,-90 78.482,-84 84.482,-84 84.482,-84 114.482,-84 114.482,-84 120.482,-84 126.482,-90 126.482,-96 126.482,-96 126.482,-108 126.482,-108 126.482,-114 120.482,-120 114.482,-120"/>
<text text-anchor="middle" x="99.482" y="-99" font-family="Helvetica,sans-Serif" font-size="10.00" fill="#000000">{aRb}</text>
</g>
<!-- A2&#45;&gt;A2 -->
<g id="edge2" class="edge">
<title>A2&#45;&gt;A2</title>
<path fill="none" stroke="#000000" d="M126.7228,-104.6224C136.5059,-104.6788 144.482,-103.8047 144.482,-102 144.482,-100.9003 141.5202,-100.1461 136.9925,-99.7374"/>
<polygon fill="#000000" stroke="#000000" points="126.7228,-99.3776 136.8743,-95.2306 131.7197,-99.5527 136.7166,-99.7279 136.7166,-99.7279 136.7166,-99.7279 131.7197,-99.5527 136.559,-104.2251 126.7228,-99.3776 126.7228,-99.3776"/>
<text text-anchor="middle" x="250.102" y="-99" font-family="Helvetica,sans-Serif" font-size="10.00" fill="#000000">[hdddhdddhddd.hdddhdddhddd.hdddhdddhddd]</text>
</g>
<!-- A2&#45;&gt;A2 -->
<g id="edge3" class="edge">
<title>A2&#45;&gt;A2</title>
<path fill="none" stroke="#000000" d="M126.5394,-104.962C193.6347,-108.7979 355.722,-107.8105 355.722,-102 355.722,-96.4618 208.4742,-95.3053 136.5743,-98.5304"/>
<polygon fill="#000000" stroke="#000000" points="126.5394,-99.038 136.2992,-94.0384 131.533,-98.7853 136.5266,-98.5327 136.5266,-98.5327 136.5266,-98.5327 131.533,-98.7853 136.754,-103.0269 126.5394,-99.038 126.5394,-99.038"/>
<text text-anchor="middle" x="461.342" y="-99" font-family="Helvetica,sans-Serif" font-size="10.00" fill="#000000">[hppphdddhddd.hdddhdddhddd.hdddhdddhddd]</text>
</g>
<!-- A2&#45;&gt;A2 -->
<g id="edge4" class="edge">
<title>A2&#45;&gt;A2</title>
<path fill="none" stroke="#000000" d="M126.6388,-105.399C228.2123,-112.341 566.962,-111.208 566.962,-102 566.962,-93.0797 249.0533,-91.7377 136.8386,-97.9738"/>
<polygon fill="#000000" stroke="#000000" points="126.6388,-98.601 136.3437,-93.4956 131.6294,-98.294 136.6199,-97.9871 136.6199,-97.9871 136.6199,-97.9871 131.6294,-98.294 136.8962,-102.4787 126.6388,-98.601 126.6388,-98.601"/>
<text text-anchor="middle" x="672.582" y="-99" font-family="Helvetica,sans-Serif" font-size="10.00" fill="#000000">[hdddhppphddd.hdddhdddhddd.hdddhdddhddd]</text>
</g>
</g>
</svg>
