<?xml version="1.0" encoding="UTF-8" standalone="no"?>
<!DOCTYPE svg PUBLIC "-//W3C//DTD SVG 1.1//EN"
 "http://www.w3.org/Graphics/SVG/1.1/DTD/svg11.dtd">
<!-- Generated by graphviz version 2.40.1 (20161225.0304)
 -->
<!-- Title: G Pages: 1 -->
<svg width="325pt" height="279pt"
 viewBox="0.00 0.00 325.09 279.00" xmlns="http://www.w3.org/2000/svg" xmlns:xlink="http://www.w3.org/1999/xlink">
<g id="graph0" class="graph" transform="scale(1 1) rotate(0) translate(4 275)">
<title>G</title>
<!-- A0 -->
<g id="node1" class="node">
<title>A0</title>
<path fill="none" stroke="#000000" d="M84.8327,-271C84.8327,-271 17.1013,-271 17.1013,-271 11.1013,-271 5.1013,-265 5.1013,-259 5.1013,-259 5.1013,-247 5.1013,-247 5.1013,-241 11.1013,-235 17.1013,-235 17.1013,-235 84.8327,-235 84.8327,-235 90.8327,-235 96.8327,-241 96.8327,-247 96.8327,-247 96.8327,-259 96.8327,-259 96.8327,-265 90.8327,-271 84.8327,-271"/>
<text text-anchor="middle" x="50.967" y="-250" font-family="Helvetica,sans-Serif" font-size="10.00" fill="#000000">{App.Seta.init}</text>
</g>
<!-- A1 -->
<g id="node2" class="node">
<title>A1</title>
<path fill="none" stroke="#000000" d="M89.901,-187C89.901,-187 12.033,-187 12.033,-187 6.033,-187 .033,-181 .033,-175 .033,-175 .033,-163 .033,-163 .033,-157 6.033,-151 12.033,-151 12.033,-151 89.901,-151 89.901,-151 95.901,-151 101.901,-157 101.901,-163 101.901,-163 101.901,-175 101.901,-175 101.901,-181 95.901,-187 89.901,-187"/>
<text text-anchor="middle" x="50.967" y="-166" font-family="Helvetica,sans-Serif" font-size="10.00" fill="#000000">{App.Seta.State}</text>
</g>
<!-- A0&#45;&gt;A1 -->
<g id="edge1" class="edge">
<title>A0&#45;&gt;A1</title>
<path fill="none" stroke="#000000" d="M50.967,-234.7733C50.967,-223.8758 50.967,-209.7946 50.967,-197.4587"/>
<polygon fill="#000000" stroke="#000000" points="50.967,-187.1912 55.4671,-197.1911 50.967,-192.1912 50.9671,-197.1912 50.9671,-197.1912 50.9671,-197.1912 50.967,-192.1912 46.4671,-197.1912 50.967,-187.1912 50.967,-187.1912"/>
<text text-anchor="middle" x="70.697" y="-208" font-family="Helvetica,sans-Serif" font-size="10.00" fill="#000000">[App.Init]</text>
</g>
<!-- A2 -->
<g id="node3" class="node">
<title>A2</title>
<path fill="none" stroke="#000000" d="M221.988,-271C221.988,-271 177.946,-271 177.946,-271 171.946,-271 165.946,-265 165.946,-259 165.946,-259 165.946,-247 165.946,-247 165.946,-241 171.946,-235 177.946,-235 177.946,-235 221.988,-235 221.988,-235 227.988,-235 233.988,-241 233.988,-247 233.988,-247 233.988,-259 233.988,-259 233.988,-265 227.988,-271 221.988,-271"/>
<text text-anchor="middle" x="199.967" y="-250" font-family="Helvetica,sans-Serif" font-size="10.00" fill="#000000">{running}</text>
</g>
<!-- A3 -->
<g id="node4" class="node">
<title>A3</title>
<path fill="none" stroke="#000000" d="M182.9417,-187C182.9417,-187 138.9923,-187 138.9923,-187 132.9923,-187 126.9923,-181 126.9923,-175 126.9923,-175 126.9923,-163 126.9923,-163 126.9923,-157 132.9923,-151 138.9923,-151 138.9923,-151 182.9417,-151 182.9417,-151 188.9417,-151 194.9417,-157 194.9417,-163 194.9417,-163 194.9417,-175 194.9417,-175 194.9417,-181 188.9417,-187 182.9417,-187"/>
<text text-anchor="middle" x="160.967" y="-166" font-family="Helvetica,sans-Serif" font-size="10.00" fill="#000000">{paused}</text>
</g>
<!-- A2&#45;&gt;A3 -->
<g id="edge2" class="edge">
<title>A2&#45;&gt;A3</title>
<path fill="none" stroke="#000000" d="M165.6128,-247.9253C147.0027,-243.2338 125.5267,-234.2338 114.063,-217 108.4972,-208.6328 112.006,-200.4551 119.1063,-193.289"/>
<polygon fill="#000000" stroke="#000000" points="127.2008,-186.4906 122.4374,-196.3679 123.372,-189.7063 119.5433,-192.922 119.5433,-192.922 119.5433,-192.922 123.372,-189.7063 116.6491,-189.4761 127.2008,-186.4906 127.2008,-186.4906"/>
<text text-anchor="middle" x="131.919" y="-208" font-family="Helvetica,sans-Serif" font-size="10.00" fill="#000000">[Pause]</text>
</g>
<!-- A4 -->
<g id="node5" class="node">
<title>A4</title>
<ellipse fill="none" stroke="#000000" cx="267.967" cy="-15" rx="11" ry="11"/>
<ellipse fill="none" stroke="#000000" cx="267.967" cy="-15" rx="15" ry="15"/>
</g>
<!-- A2&#45;&gt;A4 -->
<g id="edge3" class="edge">
<title>A2&#45;&gt;A4</title>
<path fill="none" stroke="#000000" d="M233.4216,-234.7373C250.4472,-223.4465 269.504,-207.2366 278.967,-187 301.7103,-138.3634 287.1665,-73.4047 276.4329,-38.9003"/>
<polygon fill="#000000" stroke="#000000" points="273.2696,-29.2216 280.6536,-37.3288 274.823,-33.9742 276.3763,-38.7268 276.3763,-38.7268 276.3763,-38.7268 274.823,-33.9742 272.0989,-40.1248 273.2696,-29.2216 273.2696,-29.2216"/>
<text text-anchor="middle" x="304.029" y="-124" font-family="Helvetica,sans-Serif" font-size="10.00" fill="#000000">[Stop]</text>
</g>
<!-- A3&#45;&gt;A2 -->
<g id="edge5" class="edge">
<title>A3&#45;&gt;A2</title>
<path fill="none" stroke="#000000" d="M162.9599,-187.4169C164.449,-196.627 167.0141,-207.7519 171.395,-217 172.9098,-220.1977 174.757,-223.3677 176.7762,-226.4237"/>
<polygon fill="#000000" stroke="#000000" points="182.7884,-234.6628 173.2586,-229.2374 179.8411,-230.6238 176.8937,-226.5848 176.8937,-226.5848 176.8937,-226.5848 179.8411,-230.6238 180.5288,-223.9322 182.7884,-234.6628 182.7884,-234.6628"/>
<text text-anchor="middle" x="194.753" y="-208" font-family="Helvetica,sans-Serif" font-size="10.00" fill="#000000">[Unpause]</text>
</g>
<!-- A5 -->
<g id="node6" class="node">
<title>A5</title>
<path fill="none" stroke="#000000" d="M254.1974,-103C254.1974,-103 207.7366,-103 207.7366,-103 201.7366,-103 195.7366,-97 195.7366,-91 195.7366,-91 195.7366,-79 195.7366,-79 195.7366,-73 201.7366,-67 207.7366,-67 207.7366,-67 254.1974,-67 254.1974,-67 260.1974,-67 266.1974,-73 266.1974,-79 266.1974,-79 266.1974,-91 266.1974,-91 266.1974,-97 260.1974,-103 254.1974,-103"/>
<text text-anchor="middle" x="230.967" y="-82" font-family="Helvetica,sans-Serif" font-size="10.00" fill="#000000">{retrieval}</text>
</g>
<!-- A3&#45;&gt;A5 -->
<g id="edge6" class="edge">
<title>A3&#45;&gt;A5</title>
<path fill="none" stroke="#000000" d="M159.4676,-150.7711C159.5583,-141.1775 161.1427,-129.6456 166.947,-121 171.9023,-113.619 178.9068,-107.5882 186.4768,-102.7197"/>
<polygon fill="#000000" stroke="#000000" points="195.5343,-97.527 189.097,-106.4046 191.1966,-100.0138 186.8589,-102.5007 186.8589,-102.5007 186.8589,-102.5007 191.1966,-100.0138 184.6207,-98.5967 195.5343,-97.527 195.5343,-97.527"/>
<text text-anchor="middle" x="191.977" y="-124" font-family="Helvetica,sans-Serif" font-size="10.00" fill="#000000">[requested]</text>
</g>
<!-- A5&#45;&gt;A2 -->
<g id="edge4" class="edge">
<title>A5&#45;&gt;A2</title>
<path fill="none" stroke="#000000" d="M230.9448,-103.2951C230.4853,-129.1151 228.0437,-177.5034 216.967,-217 216.1796,-219.8076 215.1901,-222.6675 214.0864,-225.4862"/>
<polygon fill="#000000" stroke="#000000" points="210.0221,-234.7752 209.908,-223.8099 212.0264,-230.1944 214.0307,-225.6137 214.0307,-225.6137 214.0307,-225.6137 212.0264,-230.1944 218.1533,-227.4176 210.0221,-234.7752 210.0221,-234.7752"/>
<text text-anchor="middle" x="251.752" y="-166" font-family="Helvetica,sans-Serif" font-size="10.00" fill="#000000">[Continue]</text>
</g>
<!-- A5&#45;&gt;A4 -->
<g id="edge7" class="edge">
<title>A5&#45;&gt;A4</title>
<path fill="none" stroke="#000000" d="M240.4954,-66.9733C245.2488,-57.9803 251.0449,-47.0148 256.0858,-37.478"/>
<polygon fill="#000000" stroke="#000000" points="260.8084,-28.5434 260.1137,-39.4872 258.4718,-32.9639 256.1352,-37.3843 256.1352,-37.3843 256.1352,-37.3843 258.4718,-32.9639 252.1568,-35.2814 260.8084,-28.5434 260.8084,-28.5434"/>
</g>
</g>
</svg>
