<?xml version="1.0" encoding="UTF-8" standalone="no"?>
<!DOCTYPE svg PUBLIC "-//W3C//DTD SVG 1.1//EN"
 "http://www.w3.org/Graphics/SVG/1.1/DTD/svg11.dtd">
<!-- Generated by graphviz version 2.40.1 (20161225.0304)
 -->
<!-- Title: G Pages: 1 -->
<svg width="214pt" height="349pt"
 viewBox="0.00 0.00 214.33 349.00" xmlns="http://www.w3.org/2000/svg" xmlns:xlink="http://www.w3.org/1999/xlink">
<g id="graph0" class="graph" transform="scale(1 1) rotate(0) translate(4 345)">
<title>G</title>
<!-- A0 -->
<g id="node1" class="node">
<title>A0</title>
<ellipse fill="none" stroke="#000000" cx="89.2011" cy="-330" rx="11" ry="11"/>
</g>
<!-- A1 -->
<g id="node2" class="node">
<title>A1</title>
<path fill="none" stroke="#000000" d="M111.2222,-271C111.2222,-271 67.1801,-271 67.1801,-271 61.1801,-271 55.1801,-265 55.1801,-259 55.1801,-259 55.1801,-247 55.1801,-247 55.1801,-241 61.1801,-235 67.1801,-235 67.1801,-235 111.2222,-235 111.2222,-235 117.2222,-235 123.2222,-241 123.2222,-247 123.2222,-247 123.2222,-259 123.2222,-259 123.2222,-265 117.2222,-271 111.2222,-271"/>
<text text-anchor="middle" x="89.2011" y="-250" font-family="Helvetica,sans-Serif" font-size="10.00" fill="#000000">{running}</text>
</g>
<!-- A0&#45;&gt;A1 -->
<g id="edge1" class="edge">
<title>A0&#45;&gt;A1</title>
<path fill="none" stroke="#000000" d="M89.2011,-318.9678C89.2011,-309.124 89.2011,-294.2813 89.2011,-281.1664"/>
<polygon fill="#000000" stroke="#000000" points="89.2011,-271.1474 93.7012,-281.1473 89.2012,-276.1474 89.2012,-281.1474 89.2012,-281.1474 89.2012,-281.1474 89.2012,-276.1474 84.7012,-281.1474 89.2011,-271.1474 89.2011,-271.1474"/>
<text text-anchor="middle" x="102.5376" y="-292" font-family="Helvetica,sans-Serif" font-size="10.00" fill="#000000">[Start]</text>
</g>
<!-- A2 -->
<g id="node3" class="node">
<title>A2</title>
<path fill="none" stroke="#000000" d="M72.1758,-187C72.1758,-187 28.2265,-187 28.2265,-187 22.2265,-187 16.2265,-181 16.2265,-175 16.2265,-175 16.2265,-163 16.2265,-163 16.2265,-157 22.2265,-151 28.2265,-151 28.2265,-151 72.1758,-151 72.1758,-151 78.1758,-151 84.1758,-157 84.1758,-163 84.1758,-163 84.1758,-175 84.1758,-175 84.1758,-181 78.1758,-187 72.1758,-187"/>
<text text-anchor="middle" x="50.2011" y="-166" font-family="Helvetica,sans-Serif" font-size="10.00" fill="#000000">{paused}</text>
</g>
<!-- A1&#45;&gt;A2 -->
<g id="edge2" class="edge">
<title>A1&#45;&gt;A2</title>
<path fill="none" stroke="#000000" d="M54.8469,-247.9253C36.2369,-243.2338 14.7609,-234.2338 3.2971,-217 -2.2686,-208.6328 1.2401,-200.4551 8.3404,-193.289"/>
<polygon fill="#000000" stroke="#000000" points="16.4349,-186.4906 11.6716,-196.3679 12.6062,-189.7063 8.7774,-192.922 8.7774,-192.922 8.7774,-192.922 12.6062,-189.7063 5.8833,-189.4761 16.4349,-186.4906 16.4349,-186.4906"/>
<text text-anchor="middle" x="21.1531" y="-208" font-family="Helvetica,sans-Serif" font-size="10.00" fill="#000000">[Pause]</text>
</g>
<!-- A3 -->
<g id="node4" class="node">
<title>A3</title>
<ellipse fill="none" stroke="#000000" cx="157.2011" cy="-15" rx="11" ry="11"/>
<ellipse fill="none" stroke="#000000" cx="157.2011" cy="-15" rx="15" ry="15"/>
</g>
<!-- A1&#45;&gt;A3 -->
<g id="edge3" class="edge">
<title>A1&#45;&gt;A3</title>
<path fill="none" stroke="#000000" d="M122.6558,-234.7373C139.6813,-223.4465 158.7382,-207.2366 168.2011,-187 190.9444,-138.3634 176.4006,-73.4047 165.6671,-38.9003"/>
<polygon fill="#000000" stroke="#000000" points="162.5038,-29.2216 169.8878,-37.3288 164.0571,-33.9742 165.6104,-38.7268 165.6104,-38.7268 165.6104,-38.7268 164.0571,-33.9742 161.3331,-40.1248 162.5038,-29.2216 162.5038,-29.2216"/>
<text text-anchor="middle" x="193.2631" y="-124" font-family="Helvetica,sans-Serif" font-size="10.00" fill="#000000">[Stop]</text>
</g>
<!-- A2&#45;&gt;A1 -->
<g id="edge5" class="edge">
<title>A2&#45;&gt;A1</title>
<path fill="none" stroke="#000000" d="M52.1941,-187.4169C53.6831,-196.627 56.2482,-207.7519 60.6291,-217 62.1439,-220.1977 63.9912,-223.3677 66.0104,-226.4237"/>
<polygon fill="#000000" stroke="#000000" points="72.0225,-234.6628 62.4928,-229.2374 69.0752,-230.6238 66.1279,-226.5848 66.1279,-226.5848 66.1279,-226.5848 69.0752,-230.6238 69.763,-223.9322 72.0225,-234.6628 72.0225,-234.6628"/>
<text text-anchor="middle" x="83.9871" y="-208" font-family="Helvetica,sans-Serif" font-size="10.00" fill="#000000">[Unpause]</text>
</g>
<!-- A4 -->
<g id="node5" class="node">
<title>A4</title>
<path fill="none" stroke="#000000" d="M143.4315,-103C143.4315,-103 96.9708,-103 96.9708,-103 90.9708,-103 84.9708,-97 84.9708,-91 84.9708,-91 84.9708,-79 84.9708,-79 84.9708,-73 90.9708,-67 96.9708,-67 96.9708,-67 143.4315,-67 143.4315,-67 149.4315,-67 155.4315,-73 155.4315,-79 155.4315,-79 155.4315,-91 155.4315,-91 155.4315,-97 149.4315,-103 143.4315,-103"/>
<text text-anchor="middle" x="120.2011" y="-82" font-family="Helvetica,sans-Serif" font-size="10.00" fill="#000000">{retrieval}</text>
</g>
<!-- A2&#45;&gt;A4 -->
<g id="edge6" class="edge">
<title>A2&#45;&gt;A4</title>
<path fill="none" stroke="#000000" d="M48.7017,-150.7711C48.7925,-141.1775 50.3769,-129.6456 56.1811,-121 61.1364,-113.619 68.1409,-107.5882 75.711,-102.7197"/>
<polygon fill="#000000" stroke="#000000" points="84.7684,-97.527 78.3312,-106.4046 80.4307,-100.0138 76.093,-102.5007 76.093,-102.5007 76.093,-102.5007 80.4307,-100.0138 73.8548,-98.5967 84.7684,-97.527 84.7684,-97.527"/>
<text text-anchor="middle" x="81.2111" y="-124" font-family="Helvetica,sans-Serif" font-size="10.00" fill="#000000">[requested]</text>
</g>
<!-- A4&#45;&gt;A1 -->
<g id="edge4" class="edge">
<title>A4&#45;&gt;A1</title>
<path fill="none" stroke="#000000" d="M120.179,-103.2951C119.7194,-129.1151 117.2778,-177.5034 106.2011,-217 105.4138,-219.8076 104.4242,-222.6675 103.3205,-225.4862"/>
<polygon fill="#000000" stroke="#000000" points="99.2562,-234.7752 99.1422,-223.8099 101.2605,-230.1944 103.2648,-225.6137 103.2648,-225.6137 103.2648,-225.6137 101.2605,-230.1944 107.3875,-227.4176 99.2562,-234.7752 99.2562,-234.7752"/>
<text text-anchor="middle" x="140.9861" y="-166" font-family="Helvetica,sans-Serif" font-size="10.00" fill="#000000">[Continue]</text>
</g>
<!-- A4&#45;&gt;A3 -->
<g id="edge7" class="edge">
<title>A4&#45;&gt;A3</title>
<path fill="none" stroke="#000000" d="M129.7296,-66.9733C134.483,-57.9803 140.2791,-47.0148 145.3199,-37.478"/>
<polygon fill="#000000" stroke="#000000" points="150.0425,-28.5434 149.3478,-39.4872 147.7059,-32.9639 145.3694,-37.3843 145.3694,-37.3843 145.3694,-37.3843 147.7059,-32.9639 141.391,-35.2814 150.0425,-28.5434 150.0425,-28.5434"/>
</g>
</g>
</svg>
