<?xml version="1.0" encoding="UTF-8" standalone="no"?>
<!DOCTYPE svg PUBLIC "-//W3C//DTD SVG 1.1//EN"
 "http://www.w3.org/Graphics/SVG/1.1/DTD/svg11.dtd">
<!-- Generated by graphviz version 2.40.1 (20161225.0304)
 -->
<!-- Title: G Pages: 1 -->
<svg width="216pt" height="349pt"
 viewBox="0.00 0.00 216.07 349.00" xmlns="http://www.w3.org/2000/svg" xmlns:xlink="http://www.w3.org/1999/xlink">
<g id="graph0" class="graph" transform="scale(1 1) rotate(0) translate(4 345)">
<title>G</title>
<!-- A0 -->
<g id="node1" class="node">
<title>A0</title>
<ellipse fill="none" stroke="#000000" cx="88.941" cy="-330" rx="11" ry="11"/>
</g>
<!-- A1 -->
<g id="node2" class="node">
<title>A1</title>
<path fill="none" stroke="#000000" d="M133.462,-271C133.462,-271 44.42,-271 44.42,-271 38.42,-271 32.42,-265 32.42,-259 32.42,-259 32.42,-247 32.42,-247 32.42,-241 38.42,-235 44.42,-235 44.42,-235 133.462,-235 133.462,-235 139.462,-235 145.462,-241 145.462,-247 145.462,-247 145.462,-259 145.462,-259 145.462,-265 139.462,-271 133.462,-271"/>
<text text-anchor="middle" x="88.941" y="-250" font-family="Helvetica,sans-Serif" font-size="10.00" fill="#000000">{Simulator running}</text>
</g>
<!-- A0&#45;&gt;A1 -->
<g id="edge1" class="edge">
<title>A0&#45;&gt;A1</title>
<path fill="none" stroke="#000000" d="M88.941,-318.9678C88.941,-309.124 88.941,-294.2813 88.941,-281.1664"/>
<polygon fill="#000000" stroke="#000000" points="88.941,-271.1474 93.4411,-281.1473 88.9411,-276.1474 88.9411,-281.1474 88.9411,-281.1474 88.9411,-281.1474 88.9411,-276.1474 84.4411,-281.1474 88.941,-271.1474 88.941,-271.1474"/>
<text text-anchor="middle" x="102.2775" y="-292" font-family="Helvetica,sans-Serif" font-size="10.00" fill="#000000">[Start]</text>
</g>
<!-- A2 -->
<g id="node3" class="node">
<title>A2</title>
<text text-anchor="middle" x="30.941" y="-166" font-family="Helvetica,sans-Serif" font-size="10.00" fill="#000000">A2</text>
</g>
<!-- A1&#45;&gt;A2 -->
<g id="edge2" class="edge">
<title>A1&#45;&gt;A2</title>
<path fill="none" stroke="#000000" d="M32.2338,-240.2212C20.7264,-234.9462 10.0227,-227.5018 3.037,-217 -1.5675,-210.0778 .098,-202.3715 4.3313,-195.1951"/>
<polygon fill="#000000" stroke="#000000" points="10.2586,-187.0928 7.9862,-197.8207 7.3064,-191.1283 4.3543,-195.1637 4.3543,-195.1637 4.3543,-195.1637 7.3064,-191.1283 .7224,-192.5067 10.2586,-187.0928 10.2586,-187.0928"/>
<text text-anchor="middle" x="20.893" y="-208" font-family="Helvetica,sans-Serif" font-size="10.00" fill="#000000">[Pause]</text>
</g>
<!-- A3 -->
<g id="node4" class="node">
<title>A3</title>
<ellipse fill="none" stroke="#000000" cx="156.941" cy="-15" rx="11" ry="11"/>
<ellipse fill="none" stroke="#000000" cx="156.941" cy="-15" rx="15" ry="15"/>
</g>
<!-- A1&#45;&gt;A3 -->
<g id="edge3" class="edge">
<title>A1&#45;&gt;A3</title>
<path fill="none" stroke="#000000" d="M120.5367,-234.8682C137.3439,-223.4254 156.6211,-207.0257 166.941,-187 191.4138,-139.511 182.3462,-119.7587 173.941,-67 172.4159,-57.4269 169.4048,-47.2217 166.3349,-38.4102"/>
<polygon fill="#000000" stroke="#000000" points="162.7897,-28.8277 170.48,-36.645 164.5247,-33.5171 166.2596,-38.2064 166.2596,-38.2064 166.2596,-38.2064 164.5247,-33.5171 162.0392,-39.7679 162.7897,-28.8277 162.7897,-28.8277"/>
<text text-anchor="middle" x="195.003" y="-124" font-family="Helvetica,sans-Serif" font-size="10.00" fill="#000000">[Stop]</text>
</g>
<!-- A2&#45;&gt;A1 -->
<g id="edge5" class="edge">
<title>A2&#45;&gt;A1</title>
<path fill="none" stroke="#000000" d="M41.3399,-187.1093C46.759,-196.241 53.6453,-207.3886 60.369,-217 62.5559,-220.1261 64.9225,-223.3402 67.3255,-226.5005"/>
<polygon fill="#000000" stroke="#000000" points="73.6727,-234.6425 63.9755,-229.5225 70.5986,-230.6992 67.5245,-226.7558 67.5245,-226.7558 67.5245,-226.7558 70.5986,-230.6992 71.0736,-223.9891 73.6727,-234.6425 73.6727,-234.6425"/>
<text text-anchor="middle" x="83.727" y="-208" font-family="Helvetica,sans-Serif" font-size="10.00" fill="#000000">[Unpause]</text>
</g>
<!-- A4 -->
<g id="node5" class="node">
<title>A4</title>
<path fill="none" stroke="#000000" d="M152.6276,-103C152.6276,-103 87.2545,-103 87.2545,-103 81.2545,-103 75.2545,-97 75.2545,-91 75.2545,-91 75.2545,-79 75.2545,-79 75.2545,-73 81.2545,-67 87.2545,-67 87.2545,-67 152.6276,-67 152.6276,-67 158.6276,-67 164.6276,-73 164.6276,-79 164.6276,-79 164.6276,-91 164.6276,-91 164.6276,-97 158.6276,-103 152.6276,-103"/>
<text text-anchor="middle" x="119.941" y="-82" font-family="Helvetica,sans-Serif" font-size="10.00" fill="#000000">{Log retrieval}</text>
</g>
<!-- A2&#45;&gt;A4 -->
<g id="edge6" class="edge">
<title>A2&#45;&gt;A4</title>
<path fill="none" stroke="#000000" d="M26.8379,-150.6684C25.7321,-141.0447 26.1697,-129.5168 32.026,-121 39.997,-109.408 52.4162,-101.5441 65.4346,-96.2108"/>
<polygon fill="#000000" stroke="#000000" points="74.9648,-92.7576 67.0961,-100.3952 70.2639,-94.461 65.563,-96.1644 65.563,-96.1644 65.563,-96.1644 70.2639,-94.461 64.0299,-91.9335 74.9648,-92.7576 74.9648,-92.7576"/>
<text text-anchor="middle" x="69.8985" y="-124" font-family="Helvetica,sans-Serif" font-size="10.00" fill="#000000">[Data requested]</text>
</g>
<!-- A4&#45;&gt;A1 -->
<g id="edge4" class="edge">
<title>A4&#45;&gt;A1</title>
<path fill="none" stroke="#000000" d="M119.9189,-103.2951C119.4593,-129.1151 117.0177,-177.5034 105.941,-217 105.1537,-219.8076 104.1641,-222.6675 103.0604,-225.4862"/>
<polygon fill="#000000" stroke="#000000" points="98.9961,-234.7752 98.882,-223.8099 101.0004,-230.1944 103.0047,-225.6137 103.0047,-225.6137 103.0047,-225.6137 101.0004,-230.1944 107.1273,-227.4176 98.9961,-234.7752 98.9961,-234.7752"/>
<text text-anchor="middle" x="139.726" y="-166" font-family="Helvetica,sans-Serif" font-size="10.00" fill="#000000">[Continue]</text>
</g>
<!-- A4&#45;&gt;A3 -->
<g id="edge7" class="edge">
<title>A4&#45;&gt;A3</title>
<path fill="none" stroke="#000000" d="M129.4695,-66.9733C134.2229,-57.9803 140.0189,-47.0148 145.0598,-37.478"/>
<polygon fill="#000000" stroke="#000000" points="149.7824,-28.5434 149.0877,-39.4872 147.4458,-32.9639 145.1093,-37.3843 145.1093,-37.3843 145.1093,-37.3843 147.4458,-32.9639 141.1308,-35.2814 149.7824,-28.5434 149.7824,-28.5434"/>
</g>
</g>
</svg>
