<?xml version="1.0" encoding="UTF-8" standalone="no"?>
<!DOCTYPE svg PUBLIC "-//W3C//DTD SVG 1.1//EN"
 "http://www.w3.org/Graphics/SVG/1.1/DTD/svg11.dtd">
<!-- Generated by graphviz version 2.40.1 (20161225.0304)
 -->
<!-- Title: G Pages: 1 -->
<svg width="63pt" height="212pt"
 viewBox="0.00 0.00 62.96 212.00" xmlns="http://www.w3.org/2000/svg" xmlns:xlink="http://www.w3.org/1999/xlink">
<g id="graph0" class="graph" transform="scale(1 1) rotate(0) translate(4 208)">
<title>G</title>
<!-- A0 -->
<g id="node1" class="node">
<title>A0</title>
<path fill="none" stroke="#000000" d="M42.946,-204C42.946,-204 12.018,-204 12.018,-204 6.018,-204 .018,-198 .018,-192 .018,-192 .018,-180 .018,-180 .018,-174 6.018,-168 12.018,-168 12.018,-168 42.946,-168 42.946,-168 48.946,-168 54.946,-174 54.946,-180 54.946,-180 54.946,-192 54.946,-192 54.946,-198 48.946,-204 42.946,-204"/>
<text text-anchor="middle" x="27.482" y="-183" font-family="Helvetica,sans-Serif" font-size="10.00" fill="#000000">{a&#45;&gt;b}</text>
</g>
<!-- A1 -->
<g id="node2" class="node">
<title>A1</title>
<path fill="none" stroke="#000000" d="M42.8885,-120C42.8885,-120 12.0755,-120 12.0755,-120 6.0755,-120 .0755,-114 .0755,-108 .0755,-108 .0755,-96 .0755,-96 .0755,-90 6.0755,-84 12.0755,-84 12.0755,-84 42.8885,-84 42.8885,-84 48.8885,-84 54.8885,-90 54.8885,-96 54.8885,-96 54.8885,-108 54.8885,-108 54.8885,-114 48.8885,-120 42.8885,-120"/>
<text text-anchor="middle" x="27.482" y="-99" font-family="Helvetica,sans-Serif" font-size="10.00" fill="#000000">{b&#45;&gt;c}</text>
</g>
<!-- A0&#45;&gt;A1 -->
<g id="edge1" class="edge">
<title>A0&#45;&gt;A1</title>
<path fill="none" stroke="#000000" d="M27.482,-167.7733C27.482,-156.8758 27.482,-142.7946 27.482,-130.4587"/>
<polygon fill="#000000" stroke="#000000" points="27.482,-120.1912 31.9821,-130.1911 27.482,-125.1912 27.4821,-130.1912 27.4821,-130.1912 27.4821,-130.1912 27.482,-125.1912 22.9821,-130.1912 27.482,-120.1912 27.482,-120.1912"/>
<text text-anchor="middle" x="35.8195" y="-141" font-family="Helvetica,sans-Serif" font-size="10.00" fill="#000000">[⧂]</text>
</g>
<!-- A2 -->
<g id="node3" class="node">
<title>A2</title>
<path fill="none" stroke="#000000" d="M42.8885,-36C42.8885,-36 12.0755,-36 12.0755,-36 6.0755,-36 .0755,-30 .0755,-24 .0755,-24 .0755,-12 .0755,-12 .0755,-6 6.0755,0 12.0755,0 12.0755,0 42.8885,0 42.8885,0 48.8885,0 54.8885,-6 54.8885,-12 54.8885,-12 54.8885,-24 54.8885,-24 54.8885,-30 48.8885,-36 42.8885,-36"/>
<text text-anchor="middle" x="27.482" y="-15" font-family="Helvetica,sans-Serif" font-size="10.00" fill="#000000">{c&#45;&gt;d}</text>
</g>
<!-- A1&#45;&gt;A2 -->
<g id="edge2" class="edge">
<title>A1&#45;&gt;A2</title>
<path fill="none" stroke="#000000" d="M16.0029,-83.9855C13.0628,-78.4334 10.3088,-72.1563 8.807,-66 7.1554,-59.2295 8.2403,-52.1326 10.5487,-45.5355"/>
<polygon fill="#000000" stroke="#000000" points="14.6297,-36.3238 14.6934,-47.2895 12.6044,-40.8953 10.5791,-45.4667 10.5791,-45.4667 10.5791,-45.4667 12.6044,-40.8953 6.4647,-43.6439 14.6297,-36.3238 14.6297,-36.3238"/>
<text text-anchor="middle" x="17.8195" y="-57" font-family="Helvetica,sans-Serif" font-size="10.00" fill="#000000">[⧂]</text>
</g>
<!-- A1&#45;&gt;A2 -->
<g id="edge3" class="edge">
<title>A1&#45;&gt;A2</title>
<path fill="none" stroke="#000000" d="M27.482,-83.7733C27.482,-72.8758 27.482,-58.7946 27.482,-46.4587"/>
<polygon fill="#000000" stroke="#000000" points="27.482,-36.1912 31.9821,-46.1911 27.482,-41.1912 27.4821,-46.1912 27.4821,-46.1912 27.4821,-46.1912 27.482,-41.1912 22.9821,-46.1912 27.482,-36.1912 27.482,-36.1912"/>
<text text-anchor="middle" x="35.8195" y="-57" font-family="Helvetica,sans-Serif" font-size="10.00" fill="#000000">[⧂]</text>
</g>
</g>
</svg>
