<?xml version="1.0" encoding="UTF-8" standalone="no"?>
<!DOCTYPE svg PUBLIC "-//W3C//DTD SVG 1.1//EN"
 "http://www.w3.org/Graphics/SVG/1.1/DTD/svg11.dtd">
<!-- Generated by graphviz version 2.40.1 (20161225.0304)
 -->
<!-- Title: G Pages: 1 -->
<svg width="481pt" height="260pt"
 viewBox="0.00 0.00 480.50 260.00" xmlns="http://www.w3.org/2000/svg" xmlns:xlink="http://www.w3.org/1999/xlink">
<g id="graph0" class="graph" transform="scale(1 1) rotate(0) translate(4 256)">
<title>G</title>
<!-- A0 -->
<g id="node1" class="node">
<title>A0</title>
<polygon fill="none" stroke="#000000" points="263.2511,-252 213.2511,-252 209.2511,-248 209.2511,-216 259.2511,-216 263.2511,-220 263.2511,-252"/>
<polyline fill="none" stroke="#000000" points="259.2511,-248 209.2511,-248 "/>
<polyline fill="none" stroke="#000000" points="259.2511,-248 259.2511,-216 "/>
<polyline fill="none" stroke="#000000" points="259.2511,-248 263.2511,-252 "/>
<text text-anchor="middle" x="236.2511" y="-231" font-family="Helvetica,sans-Serif" font-size="10.00" fill="#000000">aRb</text>
</g>
<!-- A1 -->
<g id="node2" class="node">
<title>A1</title>
<polygon fill="none" stroke="#000000" points="263.2511,-180 213.2511,-180 209.2511,-176 209.2511,-144 259.2511,-144 263.2511,-148 263.2511,-180"/>
<polyline fill="none" stroke="#000000" points="259.2511,-176 209.2511,-176 "/>
<polyline fill="none" stroke="#000000" points="259.2511,-176 259.2511,-144 "/>
<polyline fill="none" stroke="#000000" points="259.2511,-176 263.2511,-180 "/>
<text text-anchor="middle" x="236.2511" y="-159" font-family="Helvetica,sans-Serif" font-size="10.00" fill="#000000">bRc</text>
</g>
<!-- A0&#45;&gt;A1 -->
<g id="edge1" class="edge">
<title>A0&#45;&gt;A1</title>
<path fill="none" stroke="#000000" d="M208.9425,-233.8122C-69.6281,-229.899 -69.646,-166.1094 208.8889,-162.1886"/>
</g>
<!-- A0&#45;&gt;A1 -->
<g id="edge2" class="edge">
<title>A0&#45;&gt;A1</title>
<path fill="none" stroke="#000000" d="M208.8698,-233.787C-51.639,-229.6424 -51.6218,-166.349 208.9214,-162.2122"/>
</g>
<!-- A0&#45;&gt;A1 -->
<g id="edge3" class="edge">
<title>A0&#45;&gt;A1</title>
<path fill="none" stroke="#000000" d="M209.0015,-233.7603C-33.7155,-229.3872 -33.6657,-166.5861 209.151,-162.237"/>
</g>
<!-- A0&#45;&gt;A1 -->
<g id="edge4" class="edge">
<title>A0&#45;&gt;A1</title>
<path fill="none" stroke="#000000" d="M208.9814,-233.7248C-15.7472,-229.0703 -15.6589,-166.8791 209.2461,-162.2698"/>
</g>
<!-- A0&#45;&gt;A1 -->
<g id="edge5" class="edge">
<title>A0&#45;&gt;A1</title>
<path fill="none" stroke="#000000" d="M209.2152,-233.6869C2.3505,-228.7605 2.2631,-167.2935 208.9531,-162.3194"/>
</g>
<!-- A0&#45;&gt;A1 -->
<g id="edge6" class="edge">
<title>A0&#45;&gt;A1</title>
<path fill="none" stroke="#000000" d="M209.0966,-233.6298C20.3248,-228.324 20.3026,-167.6909 209.03,-162.3721"/>
</g>
<!-- A0&#45;&gt;A1 -->
<g id="edge7" class="edge">
<title>A0&#45;&gt;A1</title>
<path fill="none" stroke="#000000" d="M209.0564,-233.5589C38.2703,-227.8302 38.316,-168.1363 209.1936,-162.4365"/>
</g>
<!-- A0&#45;&gt;A1 -->
<g id="edge8" class="edge">
<title>A0&#45;&gt;A1</title>
<path fill="none" stroke="#000000" d="M208.9203,-233.4619C56.3957,-227.2271 56.3614,-168.8007 208.8173,-162.5424"/>
</g>
<!-- A0&#45;&gt;A1 -->
<g id="edge9" class="edge">
<title>A0&#45;&gt;A1</title>
<path fill="none" stroke="#000000" d="M208.8403,-233.3332C74.3207,-226.5071 74.3881,-169.4323 209.0425,-162.6566"/>
</g>
<!-- A0&#45;&gt;A1 -->
<g id="edge10" class="edge">
<title>A0&#45;&gt;A1</title>
<path fill="none" stroke="#000000" d="M208.9648,-233.1665C92.297,-225.6897 92.3466,-170.2601 209.1135,-162.824"/>
</g>
<!-- A0&#45;&gt;A1 -->
<g id="edge11" class="edge">
<title>A0&#45;&gt;A1</title>
<path fill="none" stroke="#000000" d="M209.0986,-232.9263C110.3266,-224.6695 110.302,-171.3592 209.0246,-163.0799"/>
</g>
<!-- A0&#45;&gt;A1 -->
<g id="edge12" class="edge">
<title>A0&#45;&gt;A1</title>
<path fill="none" stroke="#000000" d="M209.2483,-232.5618C128.2621,-223.3456 128.252,-172.6681 209.2183,-163.4417"/>
</g>
<!-- A0&#45;&gt;A1 -->
<g id="edge13" class="edge">
<title>A0&#45;&gt;A1</title>
<path fill="none" stroke="#000000" d="M209.1506,-231.9228C146.3015,-221.455 146.2846,-174.573 209.1,-164.0856"/>
</g>
<!-- A0&#45;&gt;A1 -->
<g id="edge14" class="edge">
<title>A0&#45;&gt;A1</title>
<path fill="none" stroke="#000000" d="M208.9648,-230.7192C164.2681,-218.6972 164.3467,-177.1359 209.2005,-165.2178"/>
</g>
<!-- A0&#45;&gt;A1 -->
<g id="edge15" class="edge">
<title>A0&#45;&gt;A1</title>
<path fill="none" stroke="#000000" d="M208.8684,-228.1079C182.3002,-214.5395 182.3789,-181.2236 209.1047,-167.7722"/>
</g>
<!-- A0&#45;&gt;A1 -->
<g id="edge16" class="edge">
<title>A0&#45;&gt;A1</title>
<path fill="none" stroke="#000000" d="M209.1938,-220.4574C200.2561,-207.5849 200.2702,-188.3343 209.2361,-175.4819"/>
</g>
<!-- A0&#45;&gt;A1 -->
<g id="edge17" class="edge">
<title>A0&#45;&gt;A1</title>
<path fill="none" stroke="#000000" d="M218.3939,-215.8314C215.2273,-205 215.2037,-191.2876 218.3231,-180.4133"/>
</g>
<!-- A0&#45;&gt;A1 -->
<g id="edge18" class="edge">
<title>A0&#45;&gt;A1</title>
<path fill="none" stroke="#000000" d="M230.2987,-215.8314C229.2432,-205 229.2353,-191.2876 230.2751,-180.4133"/>
</g>
<!-- A0&#45;&gt;A1 -->
<g id="edge19" class="edge">
<title>A0&#45;&gt;A1</title>
<path fill="none" stroke="#000000" d="M242.2035,-215.8314C243.2591,-205 243.2669,-191.2876 242.2271,-180.4133"/>
</g>
<!-- A0&#45;&gt;A1 -->
<g id="edge20" class="edge">
<title>A0&#45;&gt;A1</title>
<path fill="none" stroke="#000000" d="M254.1083,-215.8314C257.2749,-205 257.2985,-191.2876 254.1791,-180.4133"/>
</g>
<!-- A0&#45;&gt;A1 -->
<g id="edge21" class="edge">
<title>A0&#45;&gt;A1</title>
<path fill="none" stroke="#000000" d="M263.3084,-220.4574C272.2461,-207.5849 272.232,-188.3343 263.2661,-175.4819"/>
</g>
<!-- A0&#45;&gt;A1 -->
<g id="edge22" class="edge">
<title>A0&#45;&gt;A1</title>
<path fill="none" stroke="#000000" d="M263.6339,-228.1079C290.2021,-214.5395 290.1233,-181.2236 263.3975,-167.7722"/>
</g>
<!-- A0&#45;&gt;A1 -->
<g id="edge23" class="edge">
<title>A0&#45;&gt;A1</title>
<path fill="none" stroke="#000000" d="M263.5374,-230.7192C308.2341,-218.6972 308.1555,-177.1359 263.3017,-165.2178"/>
</g>
<!-- A0&#45;&gt;A1 -->
<g id="edge24" class="edge">
<title>A0&#45;&gt;A1</title>
<path fill="none" stroke="#000000" d="M263.3516,-231.9228C326.2008,-221.455 326.2176,-174.573 263.4022,-164.0856"/>
</g>
<!-- A0&#45;&gt;A1 -->
<g id="edge25" class="edge">
<title>A0&#45;&gt;A1</title>
<path fill="none" stroke="#000000" d="M263.2539,-232.5618C344.2402,-223.3456 344.2502,-172.6681 263.284,-163.4417"/>
</g>
<!-- A0&#45;&gt;A1 -->
<g id="edge26" class="edge">
<title>A0&#45;&gt;A1</title>
<path fill="none" stroke="#000000" d="M263.4037,-232.9263C362.1756,-224.6695 362.2003,-171.3592 263.4776,-163.0799"/>
</g>
<!-- A0&#45;&gt;A1 -->
<g id="edge27" class="edge">
<title>A0&#45;&gt;A1</title>
<path fill="none" stroke="#000000" d="M263.5374,-233.1665C380.2052,-225.6897 380.1557,-170.2601 263.3887,-162.824"/>
</g>
<!-- A0&#45;&gt;A1 -->
<g id="edge28" class="edge">
<title>A0&#45;&gt;A1</title>
<path fill="none" stroke="#000000" d="M263.662,-233.3332C398.1816,-226.5071 398.1141,-169.4323 263.4597,-162.6566"/>
</g>
<!-- A0&#45;&gt;A1 -->
<g id="edge29" class="edge">
<title>A0&#45;&gt;A1</title>
<path fill="none" stroke="#000000" d="M263.5819,-233.4619C416.1065,-227.2271 416.1408,-168.8007 263.6849,-162.5424"/>
</g>
<!-- A0&#45;&gt;A1 -->
<g id="edge30" class="edge">
<title>A0&#45;&gt;A1</title>
<path fill="none" stroke="#000000" d="M263.4458,-233.5589C434.2319,-227.8302 434.1862,-168.1363 263.3086,-162.4365"/>
</g>
<!-- A0&#45;&gt;A1 -->
<g id="edge31" class="edge">
<title>A0&#45;&gt;A1</title>
<path fill="none" stroke="#000000" d="M263.4056,-233.6298C452.1774,-228.324 452.1996,-167.6909 263.4722,-162.3721"/>
</g>
<!-- A0&#45;&gt;A1 -->
<g id="edge32" class="edge">
<title>A0&#45;&gt;A1</title>
<path fill="none" stroke="#000000" d="M263.287,-233.6869C470.1517,-228.7605 470.2391,-167.2935 263.5491,-162.3194"/>
</g>
<!-- A0&#45;&gt;A1 -->
<g id="edge33" class="edge">
<title>A0&#45;&gt;A1</title>
<path fill="none" stroke="#000000" d="M263.5208,-233.7248C488.2494,-229.0703 488.1612,-166.8791 263.2561,-162.2698"/>
</g>
<!-- A0&#45;&gt;A1 -->
<g id="edge34" class="edge">
<title>A0&#45;&gt;A1</title>
<path fill="none" stroke="#000000" d="M263.5007,-233.7603C506.2177,-229.3872 506.1679,-166.5861 263.3513,-162.237"/>
</g>
<!-- A0&#45;&gt;A1 -->
<g id="edge35" class="edge">
<title>A0&#45;&gt;A1</title>
<path fill="none" stroke="#000000" d="M263.6324,-233.787C524.1412,-229.6424 524.124,-166.349 263.5809,-162.2122"/>
</g>
<!-- A0&#45;&gt;A1 -->
<g id="edge36" class="edge">
<title>A0&#45;&gt;A1</title>
<path fill="none" stroke="#000000" d="M263.5597,-233.8122C542.1304,-229.899 542.1482,-166.1094 263.6133,-162.1886"/>
</g>
<!-- A2 -->
<g id="node3" class="node">
<title>A2</title>
<polygon fill="none" stroke="#000000" points="232.2511,-108 182.2511,-108 178.2511,-104 178.2511,-72 228.2511,-72 232.2511,-76 232.2511,-108"/>
<polyline fill="none" stroke="#000000" points="228.2511,-104 178.2511,-104 "/>
<polyline fill="none" stroke="#000000" points="228.2511,-104 228.2511,-72 "/>
<polyline fill="none" stroke="#000000" points="228.2511,-104 232.2511,-108 "/>
<text text-anchor="middle" x="205.2511" y="-87" font-family="Helvetica,sans-Serif" font-size="10.00" fill="#000000">cRd</text>
</g>
<!-- A1&#45;&gt;A2 -->
<g id="edge37" class="edge">
<title>A1&#45;&gt;A2</title>
<path fill="none" stroke="#000000" d="M228.4285,-143.8314C223.765,-133 217.861,-119.2876 213.1791,-108.4133"/>
</g>
<!-- A3 -->
<g id="node4" class="node">
<title>A3</title>
<polygon fill="none" stroke="#000000" points="232.2511,-36 182.2511,-36 178.2511,-32 178.2511,0 228.2511,0 232.2511,-4 232.2511,-36"/>
<polyline fill="none" stroke="#000000" points="228.2511,-32 178.2511,-32 "/>
<polyline fill="none" stroke="#000000" points="228.2511,-32 228.2511,0 "/>
<polyline fill="none" stroke="#000000" points="228.2511,-32 232.2511,-36 "/>
<text text-anchor="middle" x="205.2511" y="-15" font-family="Helvetica,sans-Serif" font-size="10.00" fill="#000000">dRe</text>
</g>
<!-- A2&#45;&gt;A3 -->
<g id="edge38" class="edge">
<title>A2&#45;&gt;A3</title>
<path fill="none" stroke="#000000" d="M178.13,-87.4375C124.3627,-76.2648 124.2916,-31.8676 177.9168,-20.6071"/>
</g>
<!-- A2&#45;&gt;A3 -->
<g id="edge39" class="edge">
<title>A2&#45;&gt;A3</title>
<path fill="none" stroke="#000000" d="M178.2453,-85.8178C142.2639,-73.0923 142.253,-34.9346 178.2127,-22.1938"/>
</g>
<!-- A2&#45;&gt;A3 -->
<g id="edge40" class="edge">
<title>A2&#45;&gt;A3</title>
<path fill="none" stroke="#000000" d="M177.924,-81.4579C160.261,-67.5264 160.3607,-40.0878 178.2231,-26.3087"/>
</g>
<!-- A2&#45;&gt;A3 -->
<g id="edge41" class="edge">
<title>A2&#45;&gt;A3</title>
<path fill="none" stroke="#000000" d="M181.4415,-71.8314C177.2194,-61 177.1879,-47.2876 181.3471,-36.4133"/>
</g>
<!-- A2&#45;&gt;A3 -->
<g id="edge42" class="edge">
<title>A2&#45;&gt;A3</title>
<path fill="none" stroke="#000000" d="M193.3463,-71.8314C191.2352,-61 191.2195,-47.2876 193.2991,-36.4133"/>
</g>
<!-- A2&#45;&gt;A3 -->
<g id="edge43" class="edge">
<title>A2&#45;&gt;A3</title>
<path fill="none" stroke="#000000" d="M205.2511,-71.8314C205.2511,-61 205.2511,-47.2876 205.2511,-36.4133"/>
</g>
<!-- A2&#45;&gt;A3 -->
<g id="edge44" class="edge">
<title>A2&#45;&gt;A3</title>
<path fill="none" stroke="#000000" d="M217.1559,-71.8314C219.267,-61 219.2827,-47.2876 217.2031,-36.4133"/>
</g>
<!-- A2&#45;&gt;A3 -->
<g id="edge45" class="edge">
<title>A2&#45;&gt;A3</title>
<path fill="none" stroke="#000000" d="M229.0607,-71.8314C233.2829,-61 233.3144,-47.2876 229.1551,-36.4133"/>
</g>
<!-- A2&#45;&gt;A3 -->
<g id="edge46" class="edge">
<title>A2&#45;&gt;A3</title>
<path fill="none" stroke="#000000" d="M232.5782,-81.4579C250.2412,-67.5264 250.1415,-40.0878 232.2791,-26.3087"/>
</g>
<!-- A2&#45;&gt;A3 -->
<g id="edge47" class="edge">
<title>A2&#45;&gt;A3</title>
<path fill="none" stroke="#000000" d="M232.2569,-85.8178C268.2383,-73.0923 268.2492,-34.9346 232.2895,-22.1938"/>
</g>
<!-- A2&#45;&gt;A3 -->
<g id="edge48" class="edge">
<title>A2&#45;&gt;A3</title>
<path fill="none" stroke="#000000" d="M232.3722,-87.4375C286.1396,-76.2648 286.2106,-31.8676 232.5855,-20.6071"/>
</g>
<!-- A4 -->
<g id="node5" class="node">
<title>A4</title>
<polygon fill="none" stroke="#000000" points="304.2511,-36 254.2511,-36 250.2511,-32 250.2511,0 300.2511,0 304.2511,-4 304.2511,-36"/>
<polyline fill="none" stroke="#000000" points="300.2511,-32 250.2511,-32 "/>
<polyline fill="none" stroke="#000000" points="300.2511,-32 300.2511,0 "/>
<polyline fill="none" stroke="#000000" points="300.2511,-32 304.2511,-36 "/>
<text text-anchor="middle" x="277.2511" y="-15" font-family="Helvetica,sans-Serif" font-size="10.00" fill="#000000">mRn</text>
</g>
<!-- A2&#45;&gt;A4 -->
<g id="edge50" class="edge">
<title>A2&#45;&gt;A4</title>
<path fill="none" stroke="#000000" d="M223.4198,-71.8314C234.2511,-61 247.9635,-47.2876 258.8378,-36.4133"/>
</g>
<!-- A4&#45;&gt;A1 -->
<g id="edge49" class="edge">
<title>A4&#45;&gt;A1</title>
<path fill="none" stroke="#000000" d="M272.1006,-36.0896C264.2392,-63.7005 249.3303,-116.0633 241.4438,-143.7623"/>
</g>
</g>
</svg>
