<?xml version="1.0" encoding="UTF-8" standalone="no"?>
<!DOCTYPE svg PUBLIC "-//W3C//DTD SVG 1.1//EN"
 "http://www.w3.org/Graphics/SVG/1.1/DTD/svg11.dtd">
<!-- Generated by graphviz version 2.40.1 (20161225.0304)
 -->
<!-- Title: G Pages: 1 -->
<svg width="412pt" height="363pt"
 viewBox="0.00 0.00 411.77 363.00" xmlns="http://www.w3.org/2000/svg" xmlns:xlink="http://www.w3.org/1999/xlink">
<g id="graph0" class="graph" transform="scale(1 1) rotate(0) translate(4 359)">
<title>G</title>
<!-- A0 -->
<g id="node1" class="node">
<title>A0</title>
<ellipse fill="none" stroke="#000000" cx="201.8845" cy="-214" rx="27.729" ry="18"/>
<text text-anchor="middle" x="201.8845" y="-211" font-family="Helvetica,sans-Serif" font-size="10.00" fill="#000000">aRb</text>
</g>
<!-- A1 -->
<g id="node2" class="node">
<title>A1</title>
<ellipse fill="none" stroke="#000000" cx="201.8845" cy="-116" rx="27.5561" ry="18"/>
<text text-anchor="middle" x="201.8845" y="-113" font-family="Helvetica,sans-Serif" font-size="10.00" fill="#000000">aRc</text>
</g>
<!-- A0&#45;&gt;A1 -->
<g id="edge1" class="edge">
<title>A0&#45;&gt;A1</title>
<path fill="none" stroke="#000000" stroke-dasharray="5,2" d="M201.8845,-195.5669C201.8845,-181.1034 201.8845,-160.7239 201.8845,-144.2111"/>
<polygon fill="#000000" stroke="#000000" points="201.8845,-134.0193 206.3846,-144.0192 201.8845,-139.0193 201.8846,-144.0193 201.8846,-144.0193 201.8846,-144.0193 201.8845,-139.0193 197.3846,-144.0193 201.8845,-134.0193 201.8845,-134.0193"/>
<text text-anchor="middle" x="229.3995" y="-162" font-family="Helvetica,sans-Serif" font-size="10.00" fill="#000000">&lt;&lt;include&gt;&gt;</text>
</g>
<!-- A2 -->
<g id="node3" class="node">
<title>A2</title>
<ellipse fill="none" stroke="#000000" cx="201.8845" cy="-18" rx="27.729" ry="18"/>
<text text-anchor="middle" x="201.8845" y="-15" font-family="Helvetica,sans-Serif" font-size="10.00" fill="#000000">aRd</text>
</g>
<!-- A1&#45;&gt;A2 -->
<g id="edge2" class="edge">
<title>A1&#45;&gt;A2</title>
<path fill="none" stroke="#000000" stroke-dasharray="5,2" d="M201.8845,-97.5669C201.8845,-83.1034 201.8845,-62.7239 201.8845,-46.2111"/>
<polygon fill="#000000" stroke="#000000" points="201.8845,-36.0193 206.3846,-46.0192 201.8845,-41.0193 201.8846,-46.0193 201.8846,-46.0193 201.8846,-46.0193 201.8845,-41.0193 197.3846,-46.0193 201.8845,-36.0193 201.8845,-36.0193"/>
<text text-anchor="middle" x="229.3995" y="-64" font-family="Helvetica,sans-Serif" font-size="10.00" fill="#000000">&lt;&lt;include&gt;&gt;</text>
</g>
<!-- A3 -->
<g id="node4" class="node">
<title>A3</title>
<g transform="translate(201.8845,-316)" style="fill:none;stroke:black;stroke-width:1px"><circle cx="0" cy="-20" r="7.5" />
                <line x1="0" y1="-12.5" x2="0" y2="5" />
                <line x1="-15" y1="-5" x2="15" y2="-5" />
                <line x1="0" y1="5" x2="-15" y2="17" />
                <line x1="0" y1="5" x2="15" y2="17" /></g>
<text text-anchor="middle" x="201.8845" y="-291" font-family="Helvetica,sans-Serif" font-size="10.00" fill="#000000">3c2308b1bc64683e5aed4111841da5bc3b3295b01a852f1dc4e68510f79dd37f</text>
</g>
<!-- A3&#45;&gt;A0 -->
<g id="edge3" class="edge">
<title>A3&#45;&gt;A0</title>
<path fill="none" stroke="#000000" d="M201.8845,-282.865C201.8845,-265.7803 201.8845,-246.1266 201.8845,-232.1997"/>
</g>
</g>
</svg>
