<?xml version="1.0" encoding="UTF-8" standalone="no"?>
<!DOCTYPE svg PUBLIC "-//W3C//DTD SVG 1.1//EN"
 "http://www.w3.org/Graphics/SVG/1.1/DTD/svg11.dtd">
<!-- Generated by graphviz version 2.40.1 (20161225.0304)
 -->
<!-- Title: G Pages: 1 -->
<svg width="91pt" height="240pt"
 viewBox="0.00 0.00 90.89 240.00" xmlns="http://www.w3.org/2000/svg" xmlns:xlink="http://www.w3.org/1999/xlink">
<g id="graph0" class="graph" transform="scale(1 1) rotate(0) translate(4 236)">
<title>G</title>
<!-- A0 -->
<g id="node1" class="node">
<title>A0</title>
<ellipse fill="none" stroke="#000000" cx="27.8642" cy="-214" rx="27.729" ry="18"/>
<text text-anchor="middle" x="27.8642" y="-211" font-family="Helvetica,sans-Serif" font-size="10.00" fill="#000000">aRb</text>
</g>
<!-- A1 -->
<g id="node2" class="node">
<title>A1</title>
<ellipse fill="none" stroke="#000000" cx="27.8642" cy="-116" rx="27.5561" ry="18"/>
<text text-anchor="middle" x="27.8642" y="-113" font-family="Helvetica,sans-Serif" font-size="10.00" fill="#000000">aRc</text>
</g>
<!-- A0&#45;&gt;A1 -->
<g id="edge1" class="edge">
<title>A0&#45;&gt;A1</title>
<path fill="none" stroke="#000000" stroke-dasharray="5,2" d="M27.8642,-195.5669C27.8642,-181.1034 27.8642,-160.7239 27.8642,-144.2111"/>
<polygon fill="#000000" stroke="#000000" points="27.8642,-134.0193 32.3643,-144.0192 27.8642,-139.0193 27.8643,-144.0193 27.8643,-144.0193 27.8643,-144.0193 27.8642,-139.0193 23.3643,-144.0193 27.8642,-134.0193 27.8642,-134.0193"/>
<text text-anchor="middle" x="55.3792" y="-162" font-family="Helvetica,sans-Serif" font-size="10.00" fill="#000000">&lt;&lt;include&gt;&gt;</text>
</g>
<!-- A2 -->
<g id="node3" class="node">
<title>A2</title>
<ellipse fill="none" stroke="#000000" cx="27.8642" cy="-18" rx="27.729" ry="18"/>
<text text-anchor="middle" x="27.8642" y="-15" font-family="Helvetica,sans-Serif" font-size="10.00" fill="#000000">aRd</text>
</g>
<!-- A1&#45;&gt;A2 -->
<g id="edge2" class="edge">
<title>A1&#45;&gt;A2</title>
<path fill="none" stroke="#000000" stroke-dasharray="5,2" d="M27.8642,-97.5669C27.8642,-83.1034 27.8642,-62.7239 27.8642,-46.2111"/>
<polygon fill="#000000" stroke="#000000" points="27.8642,-36.0193 32.3643,-46.0192 27.8642,-41.0193 27.8643,-46.0193 27.8643,-46.0193 27.8643,-46.0193 27.8642,-41.0193 23.3643,-46.0193 27.8642,-36.0193 27.8642,-36.0193"/>
<text text-anchor="middle" x="55.3792" y="-64" font-family="Helvetica,sans-Serif" font-size="10.00" fill="#000000">&lt;&lt;include&gt;&gt;</text>
</g>
</g>
</svg>
